<svg xmlns="http://www.w3.org/2000/svg" viewBox="0 0 1200 800" width="1200" height="800"><g transform="translate(356.0 155.0) rotate(0.0 89.5 148.5) scale(0.7458333333333333 0.7425)"><svg width="240" height="400" viewBox="0 0 240 400"><path d="m110.1 164.3-1-.2c1.6-7.9 3.5-14.4 5.4-20.7 3.5-11.6 6.8-22.6 6.6-40h1c.2 17.5-3.1 28.6-6.6 40.3-1.9 6.3-3.9 12.8-5.4 20.6zm2.2 84.2h6.8v33.4h-6.8zm-8.9 0h6.8v33.4h-6.8zm-8.9 0h6.8v33.4h-6.8zm-8.9 0h6.8v33.4h-6.8z" fill="#a1c3fc"/><path d="M5.2 281.6h122.5v5.1H5.2z" fill="#eee"/><path d="M209.1 214.6v-6.4l2.7-.6-2.7-.3c0-.9 0-1.9-.1-2.8.8-.4 1.6-.9 2.4-1.4-.8.2-1.6.3-2.5.5-.1-.9-.3-1.9-.6-2.7.7-.3 1.3-.7 1.8-1.2-.8 0-1.6-.1-2.5-.2-.2-.4-.5-.8-.8-1.1-.5-.5-1.1-1-1.7-1.1-1.1-.1-1.9.7-2.5 1.8 0-.1-.1-.1-.1-.2-.5-.8-1.4-1.3-2.2-1.6.6 1 1.2 2.1 1.7 3.1-.2.6-.4 1.1-.6 1.7-1 .3-1.9.7-2.9 1.1.8.2 1.7.4 2.5.5-.3 1.3-.4 2.6-.6 3.9-.9.1-1.8.1-2.7.1.8.4 1.7.7 2.6.9-.1 1.3-.1 2.6 0 3.9-1.1-.3-2.3-.5-3.5-.4 1.1.8 2.3 1.4 3.5 1.8.1 2.9.5 5.8.7 8.6 2.1-1.2 5.6.6 7.8-.4v-6.7c.8 0 1.6.2 2.3.4-.5-.5-1.2-.9-2-1.2z" fill="#a1c3fc"/><path d="M161.4 112.5c-.7-.9-1.6-1.8-2-3-.8-2.4.4-4.9 1.2-7.3s1.2-5.5-.8-7c-1.6-1.3-4.5-1.2-5.3-3.1-.3-.7-.2-1.5-.3-2.3-.5-3.3-4.8-4.9-8-3.8s-5.4 3.9-7.5 6.6c-.7 1-1.4 2.5-.5 3.3.9.7 2.5-.1 3.3.7.7.7.2 1.8-.4 2.5s-1.5 1.3-1.6 2.2c-.3 1.8 1.9 2.8 3.7 3s4 .7 4.3 2.5c-2.4 2.8-4.9 6.4-3.7 9.9 1.4 4 6.3 5.8 10.1 7.8 7 3.8 9.8 11.5 11.3 19.2 4.6-10.2 3.1-22.6-3.8-31.2z" fill="#dfebfe"/><path d="M162.6 41.9c-.1.7-.1 1.4-.1 2.1 0 9.9 8 17.8 17.8 17.8 9.9 0 17.8-8 17.8-17.8 0-.7-.1-1.4-.1-2.1z" fill="#cfe0fd"/><path d="m126.3 8.6.2-8.6h-.2l-3.4 7.8z" fill="#a1c3fc"/><path d="m112.021 59.03 11.004-51.438 3.423.732-11.004 51.438zM124.7 3.7l1.7.3.1-4h-.2zm-9 14-2-6.7h-.1l-.8 6.9z" fill="#a1c3fc"/><path d="m112.822 17.706 2.789-.246 3.758 42.533-2.79.247zm.378-3.406 1.4-.2-.9-3.1h-.1zm-22.7 93.5h11.6v56.6H90.5zM69.525 279.534l10.41-31.209 6.45 2.152-10.41 31.209z" fill="#a1c3fc"/><path d="m72.36 162.609 11.525-46.187 6.404 1.598-11.524 46.187z" fill="#bfd6fd"/><path d="m60.836 161.65 15.98-44.84 6.217 2.216-15.98 44.839zM134.2 338.8h11.6v56.3h-11.6zm11.942 10.207 6.404-1.598 11.524 46.186-6.404 1.598zm7.261.967 6.217-2.215 15.98 44.839-6.218 2.215zM180.6 164.5h-30.2l-5.3-35.2h40.8zm14.8-102.3h-30.2l-5.3-5h40.8z" fill="#a1c3fc"/><path d="M149.6 313.3h57.9v11.2h-57.9z" fill="#cee0fd"/><path d="M141.1 302.2H199v11.2h-57.9zm-69.7-77.4h57.9V236H71.4z" fill="#a1c3fc"/><path d="M62.9 213.6h57.9v11.2H62.9z" fill="#d6d7d8"/><g fill="#a1c3fc"><path d="M77.3 202.3h46.6v11.3H77.3zm87.7-67.6c-.1-6.7.3-13.4 1.1-20"/><path d="M165 135.2c-.3 0-.5-.2-.5-.5-.1-6.7.3-13.4 1.1-20.1 0-.3.3-.5.6-.4.3 0 .5.3.4.6-.8 6.6-1.2 13.3-1.1 20 .1.2-.2.4-.5.4z"/><ellipse cx="166.3" cy="114.1" rx="1.3" ry="3.4" transform="matrix(.1215 -.9926 .9926 .1215 32.9182 265.2936)"/><path d="M166.3 113.9c.5-3.8 1.1-7.5 1.9-11.2"/><path d="M166.3 114.4c-.1 0-.1 0 0 0-.3 0-.5-.3-.5-.6.5-3.8 1.2-7.5 2-11.2.1-.3.3-.4.6-.4.3.1.5.3.4.6-.8 3.7-1.4 7.4-1.9 11.2-.2.2-.4.4-.6.4z"/><ellipse cx="168.4" cy="101.9" rx="1.5" ry="4.1" transform="matrix(.02420017 -.9997 .9997 .02420017 62.4662 267.7468)"/><path d="M168.4 101.7c.7-3.1 1.5-6.1 2.3-9.1"/><path d="M168.4 102.2h-.1c-.3-.1-.5-.3-.4-.6.7-3.1 1.5-6.1 2.4-9.1.1-.3.4-.4.6-.3.3.1.4.4.3.6-.9 3-1.7 6-2.3 9.1 0 .2-.3.3-.5.3z"/><ellipse cx="171.3" cy="91.7" rx="1.5" ry="4.1" transform="matrix(.3303 -.9439 .9439 .3303 28.1268 223.1346)"/><path d="M171.1 91.4c.7-2.3 1.4-4.5 2.2-6.8"/><path d="M171.1 91.9h-.1c-.3-.1-.4-.4-.3-.6.7-2.3 1.5-4.6 2.3-6.8.1-.3.4-.4.7-.3s.4.4.3.7c-.8 2.2-1.6 4.5-2.2 6.8-.2.1-.5.2-.7.2z"/><ellipse cx="173.8" cy="83.5" rx="2.1" ry="5.5" transform="matrix(.3303 -.9439 .9439 .3303 37.6398 219.9514)"/><path d="M78.6 324H53.1l-4.4-4.5H83zm-24.3 36.2h43v35.2h-43z"/></g><path d="M197.2 219.8h15.5v16.1h-15.5z" fill="#eee"/><path d="M105.1 30h20.6v34.1h-20.6zm68.8 53.1c.6-1.5 1.1-3 1.7-4.4" fill="#a1c3fc"/><path d="M173.9 83.6h-.2c-.3-.1-.4-.4-.3-.7.6-1.5 1.1-3 1.7-4.4.1-.3.4-.4.7-.3s.4.4.3.7c-.6 1.5-1.2 2.9-1.7 4.4-.1.2-.3.3-.5.3z" fill="#a1c3fc"/><path d="M109.7 169.4H33.5V93.2h76.2zm-71-5.2h65.9V98.3H38.7z" fill="#eee"/><path d="M213.7 67.4h-66.9V.5h66.9zM152 62.3h56.6V5.7H152zm72 178.1H26.3v-76.2H224zm-192.5-5.1h187.4v-65.9H31.5zM224 400H26.3v-76.2H224zm-192.5-5.1h187.4V329H31.5z" fill="#d6d7d8"/><path d="M124.1 65.9h5.1v101.9h-5.1zm0 171.9h5.1v159.6h-5.1z" fill="#d6d7d8"/><path d="M89.6 62.3h145.2v5.1H89.6z" fill="#eee"/><path d="M50.9 306.6c-.1.6-.1 1.1-.1 1.7 0 8.3 6.7 15 15 15s15-6.7 15-15c0-.6 0-1.2-.1-1.7zm11.038 51.39 4.597-4.596 4.596 4.596-4.596 4.596zm18.39-.026 4.596-4.596 4.597 4.596-4.597 4.597z" fill="#a1c3fc"/><path d="M68.1 356.9H64c0-4.8.1-9.7 1.8-12.9 1.7-3.5 6.3-7.1 10.7-7 5.3.2 9.5 5.2 10.3 8.6.9 3.5.5 9.7.4 10.9l-4.1-.3c.2-3.3.2-7.6-.3-9.6-.4-1.8-3.1-5.3-6.5-5.5-2.3-.1-5.6 2.1-6.8 4.7-1.4 2.7-1.4 8-1.4 11.1zm47.8-192.5-1-.3c7.5-27.6 9.8-50.1 7.7-73.1l1-.1c2.2 23.1-.2 45.7-7.7 73.5z" fill="#a1c3fc"/><path d="m112.8 164.3-1-.2c1-4.9 2-9.8 3.1-14.5 3.8-17.6 7.5-34.2 7.2-55.1h1c.2 21-3.4 37.7-7.3 55.3-.9 4.7-2 9.6-3 14.5z" fill="#a1c3fc"/></svg></g><g transform="translate(350.0 165.0) rotate(0.0 -163.0 217.0) scale(-1.0866666666666667 1.085)"><svg width="300" height="400" viewBox="0 0 300 400"><linearGradient id="a"><stop offset="0" stop-color="#81aef2"/><stop offset="1" stop-color="#78a9ef"/></linearGradient><linearGradient xmlns:xlink="http://www.w3.org/1999/xlink" id="c" gradientTransform="matrix(.2134 0 0 -.2134 -92.9325 -51.8863)" gradientUnits="userSpaceOnUse" x1="1446.361" x2="1516.83" xlink:href="#a" y1="-1497.405" y2="-1497.405"/><linearGradient xmlns:xlink="http://www.w3.org/1999/xlink" id="d" gradientTransform="matrix(.2134 0 0 -.2134 -92.9325 -51.8863)" gradientUnits="userSpaceOnUse" x1="1515.691" x2="1586.16" xlink:href="#a" y1="-1497.405" y2="-1497.405"/><linearGradient id="b"><stop offset="0" stop-color="#a1c3fc"/><stop offset="1" stop-color="#78a9ef"/></linearGradient><linearGradient xmlns:xlink="http://www.w3.org/1999/xlink" id="e" gradientTransform="matrix(.2134 0 0 -.2134 -92.9325 -51.8863)" gradientUnits="userSpaceOnUse" x1="1446.361" x2="1516.83" xlink:href="#b" y1="-1497.408" y2="-1497.408"/><linearGradient xmlns:xlink="http://www.w3.org/1999/xlink" id="f" gradientTransform="matrix(.2134 0 0 -.2134 -92.9325 -51.8863)" gradientUnits="userSpaceOnUse" x1="1515.691" x2="1586.16" xlink:href="#b" y1="-1497.408" y2="-1497.408"/><linearGradient xmlns:xlink="http://www.w3.org/1999/xlink" id="g" gradientTransform="matrix(.2134 0 0 -.2134 -92.9325 -51.8863)" gradientUnits="userSpaceOnUse" x1="1309.674" x2="1380.143" xlink:href="#a" y1="-1497.405" y2="-1497.405"/><linearGradient xmlns:xlink="http://www.w3.org/1999/xlink" id="h" gradientTransform="matrix(.2134 0 0 -.2134 -92.9325 -51.8863)" gradientUnits="userSpaceOnUse" x1="1379.009" x2="1449.477" xlink:href="#a" y1="-1497.405" y2="-1497.405"/><linearGradient xmlns:xlink="http://www.w3.org/1999/xlink" id="i" gradientTransform="matrix(.2134 0 0 -.2134 -92.9325 -51.8863)" gradientUnits="userSpaceOnUse" x1="1309.674" x2="1380.143" xlink:href="#b" y1="-1497.408" y2="-1497.408"/><linearGradient xmlns:xlink="http://www.w3.org/1999/xlink" id="j" gradientTransform="matrix(.2134 0 0 -.2134 -92.9325 -51.8863)" gradientUnits="userSpaceOnUse" x1="1379.009" x2="1449.477" xlink:href="#b" y1="-1497.408" y2="-1497.408"/><linearGradient xmlns:xlink="http://www.w3.org/1999/xlink" id="k" gradientTransform="matrix(.2134 0 0 -.2134 -92.9325 -51.8863)" gradientUnits="userSpaceOnUse" x1="1130.685" x2="1246.585" xlink:href="#b" y1="-1406.348" y2="-1406.348"/><path d="m258.9 362.5-5.2-14.2c-1.9-.1-3.7.1-5.5.7l5.6 15.4c.3.9-.1 1.8-1 2.1s-1.8-.1-2.1-1l-5.5-15.1c-1.7 1-3.1 2.4-4.3 4.1l4.7 12.7c.3.9-.1 1.8-1 2.1s-1.8-.1-2.1-1l-3.7-10c-2.1 5.2-2.2 11.8.1 18.3.1.2.1.3.2.4-1.2.7-2.4 1.5-3.5 2.3-3.2 2.4-7.3 6.3-8.8 12l1.6.4c1.4-5.2 5.2-8.9 8.2-11.1 1-.8 2.1-1.4 3.2-2.1 2.5 5.5 6.5 9.8 10.9 12.2l-3.5-9.5c-.3-.9.1-1.8 1-2.1s1.8.1 2.1 1l4.5 12.2c2 .5 3.9.6 5.9.3l-5.2-14.2c-.3-.9.1-1.8 1-2.1s1.8.1 2.1 1l5.3 14.4c1.7-.8 3.2-1.9 4.6-3.3l-4.8-13c-.3-.9.1-1.8 1-2.1s1.8.1 2.1 1l4.1 11.2c1.3-1.9 2.5-4 3.5-6.2l-2.6-7c-.3-.9.1-1.8 1-2.1s1.8.1 2.1 1l1.4 3.7c2.5-6.3 4.3-12.3 6.4-14.3-3.6-.8-8.7-4.2-14.3-7.2l1.8 4.8c.3.9-.1 1.8-1 2.1s-1.8-.1-2.1-1l-3-8.2c-2.2-1-4.4-1.8-6.6-2.3l4.6 12.5c.3.9-.1 1.8-1 2.1-1 .4-1.9-.1-2.2-.9z" fill="#e0ebfe"/><path d="M75.9 77.1h68.2v16.3H75.9z" fill="#d62929"/><path d="M68.6 66.2h68.2v10.9H68.6z" fill="#428dfc"/><path d="M80.6 80.5h64v9.4h-64z" fill="#d6d7d8"/><g fill="#eee"><path d="M80.6 87.5h64v1.2h-64zm0-2.3h64v1.2h-64zm0-2.4h64V84h-64zm0-2.3h64v1.2h-64z"/></g><path d="M72.2 49.8h80.4v16.4H72.2z" fill="#d62929"/><path d="M77.7 53.2h75.5v9.5H77.7z" fill="#d6d7d8"/><path d="M77.7 60.4h75.5v1.2H77.7zm0-2.4h75.5v1.2H77.7zm0-2.4h75.5v1.2H77.7zm0-2.4h75.5v1.2H77.7z" fill="#eee"/><path d="M21.9 0h20.2v94H21.9zm23.3 0h20.2v94H45.2z" fill="#d62929"/><path d="M21.9 25.3h20.2v43.4H21.9zm23.3 0h20.2v43.4H45.2z" fill="#e94a47"/><path d="M20.8 379.1H89v16.1H20.8z" fill="#d62929"/><path d="M14.1 368.2h70.7v10.9H14.1z" fill="#428dfc"/><path d="M25.5 382.5h64v9.4h-64z" fill="#d6d7d8"/><path d="M25.5 389.5h64v1.2h-64zm0-2.3h64v1.2h-64zm0-2.4h64v1.2h-64zm0-2.3h64v1.2h-64z" fill="#eee"/><path d="M17.1 351.8h80.4v16.4H17.1z" fill="#d62929"/><path d="M22.6 355.2h75.5v9.5H22.6z" fill="#d6d7d8"/><path d="M22.6 362.4h75.5v1.2H22.6z" fill="#eee"/><path d="M232 328.3h11V396h-11z" fill="#428dfc"/><path d="M216.4 316.1H232V396h-15.6z" fill="#d62929"/><path d="M22.6 360h75.5v1.2H22.6zm0-2.4h75.5v1.2H22.6zm0-2.4h75.5v1.2H22.6z" fill="#eee"/><path d="M10.9 93.4h241.4v5H10.9zM9.4 395h241.4v5H9.4z" fill="#d6d7d8"/><path d="m143.296 24.478 12.01-4.427 25.382 68.872-12.01 4.426z" fill="#1d72d8"/><path d="m156.798 24.492 12.01-4.426 25.382 68.871-12.01 4.426z" fill="#428dfc"/><path d="m171.655 28.157 11.37-5.877 33.705 65.2-11.37 5.878z" fill="#78a9ef"/><path d="m149.196 297.638 25.381-68.872 12.01 4.427-25.381 68.87z" fill="#1d72d8"/><path d="m135.669 297.6 25.382-68.87 12.01 4.425-25.382 68.872zM206.6 117.1h13.1v81.1h-13.1z" fill="#428dfc"/><path d="M219.5 111.5h20.4v86.8h-20.4z" fill="#23286b"/><path d="M223.7 110.9h11.9v81.5h-11.9z" fill="#d6d7d8"/><path d="M232.7 110.9h1.5v81.5h-1.5zm-3 0h1.5v81.5h-1.5zm-3 0h1.5v81.5h-1.5zm-3 0h1.5v81.5h-1.5z" fill="#eee"/><path d="M187.7 102.6h19.1v95.7h-19.1z" fill="#d62929"/><path d="M18.6 132.4h14.5v66.9H18.6z" fill="#a1c3fc"/><path d="m68.2 135.2 10.9-3 16.8 62.5-10.8 3z" fill="#78a9ef"/><path d="m77.9 171 10.8-3 .8 2.9-10.8 3z" fill="#d6d7d8"/><path d="M18.6 174.8h14.5v4.4H18.6zm0 8.6h14.5v4.4H18.6z" fill="#428dfc"/><path d="M36.2 132.4h14.5v66.9H36.2z" fill="#a1c3fc"/><path d="M36.2 174.8h14.5v4.4H36.2zm0 8.6h14.5v4.4H36.2z" fill="#428dfc"/><path d="M53.8 132.4h14.5v66.9H53.8z" fill="#a1c3fc"/><path d="M53.8 174.8h14.5v4.4H53.8zm0 8.6h14.5v4.4H53.8z" fill="#428dfc"/><path d="m93.439 325.2 15.116-2.363 10.908 69.752-15.117 2.364z" fill="#a1c3fc"/><path d="m100.335 369.51 15.117-2.364.71 4.545-15.116 2.364zm1.395 8.9 15.117-2.364.71 4.545-15.116 2.364z" fill="#428dfc"/><path d="m112.239 325.2 15.116-2.364 10.908 69.753-15.117 2.364z" fill="#a1c3fc"/><path d="m119.135 369.51 15.117-2.364.71 4.544-15.116 2.364zm1.395 8.9 15.117-2.364.71 4.544-15.116 2.364z" fill="#428dfc"/><path d="m131.039 325.2 15.116-2.364 10.908 69.753-15.117 2.364z" fill="#a1c3fc"/><path d="m137.935 369.51 15.117-2.365.71 4.545-15.116 2.364zm1.395 8.9 15.117-2.365.71 4.545-15.116 2.364z" fill="#428dfc"/><path d="M100.2 132.4h14.5v66.9h-14.5z" fill="#a1c3fc"/><path d="M100.2 174.8h14.5v4.4h-14.5zm0 8.6h14.5v4.4h-14.5z" fill="#428dfc"/><path d="M117.8 132.4h14.5v66.9h-14.5z" fill="#a1c3fc"/><path d="M117.8 174.8h14.5v4.4h-14.5zm0 8.6h14.5v4.4h-14.5z" fill="#428dfc"/><path d="M135.4 132.4h14.5v66.9h-14.5z" fill="#a1c3fc"/><path d="M135.4 174.8h14.5v4.4h-14.5zm0 8.6h14.5v4.4h-14.5z" fill="#428dfc"/><path d="M87.9 244.6h12.6v58.3H87.9z" fill="#a1c3fc"/><path d="M87.9 274.6h12.6v7.6H87.9zm0 14.5h12.6v3.8H87.9z" fill="#428dfc"/><path d="M103.3 244.6h12.6v58.3h-12.6z" fill="#a1c3fc"/><path d="M103.3 274.6h12.6v7.6h-12.6zm0 14.5h12.6v3.8h-12.6z" fill="#428dfc"/><path d="M118.6 244.6h12.6v58.3h-12.6z" fill="#a1c3fc"/><path d="M118.6 274.6h12.6v7.6h-12.6zm0 14.5h12.6v3.8h-12.6z" fill="#428dfc"/><path d="M16.7 237.5h14.1v65.1H16.7z" fill="#23286b"/><path d="m30.6 235.1 14.4-.8 3.8 66.9-14.4.9z" fill="#d62929"/><path d="M16.7 255h14.1v30H16.7z" fill="#1d72d8"/><path d="M70.6 237.5h14.1v65.1H70.6z" fill="#d62929"/><path d="M70.6 255h14.1v30H70.6zm-39-1.9 14.4-.8 1.8 30.9-14.4.8z" fill="#e94a47"/><path d="m45.21 237.464 13.967-1.929 8.905 64.488-13.967 1.93z" fill="#d62929"/><path d="m47.617 254.899 13.967-1.93 4.104 29.719-13.967 1.929z" fill="#e94a47"/><path d="M215.7 232.9h15v69.6h-15z" fill="url(#c)"/><path d="M230.5 232.9h15v69.6h-15z" fill="url(#d)"/><path d="M215.7 251.6h15v32.1h-15z" fill="url(#e)"/><path d="M230.5 251.6h15v32.1h-15z" fill="url(#f)"/><path d="M186.6 232.9h15v69.6h-15z" fill="url(#g)"/><path d="M201.3 232.9h15v69.6h-15z" fill="url(#h)"/><path d="M186.6 251.6h15v32.1h-15z" fill="url(#i)"/><path d="M201.3 251.6h15v32.1h-15z" fill="url(#j)"/><path d="M10.9 197.7h241.4v5H10.9zm143.332 86.216 2.282-6.193 12.01 4.426-2.282 6.193z" fill="#d6d7d8"/><path d="m148.4 263.3 12 4.4 12.7-34.5-12-4.5z" fill="url(#k)"/><path d="M10.9 302.1h240v5h-240z" fill="#d6d7d8"/><path d="M213.7 394.8h-.2c-.4-.1-.6-.5-.5-.9 5-17.7 11.4-35.2 19-52.2.2-.4.6-.6 1-.4s.6.6.4 1c-7.5 16.8-13.9 34.3-18.9 52-.2.3-.5.5-.8.5z" fill="#a1c3fc"/><ellipse cx="233.6" cy="340.4" fill="#1c2868" rx="3.5" ry="9.4" transform="matrix(.4038 -.9149 .9149 .4038 -172.1112 416.6628)"/><path d="M233.6 340.7c-.1 0-.2 0-.3-.1-.4-.2-.6-.6-.4-1 4.3-9.5 9.1-19 14.1-28.1.2-.4.7-.5 1-.3.4.2.5.7.3 1-5 9.1-9.8 18.5-14.1 28-.1.3-.4.5-.6.5z" fill="#a1c3fc"/><ellipse cx="248.9" cy="309.8" fill="#1c2868" rx="4.2" ry="11.4" transform="matrix(.3128 -.9498 .9498 .3128 -123.256 449.2959)"/><path d="M249 310.3c-.1 0-.3 0-.4-.1-.4-.2-.5-.7-.3-1 4.2-7.5 8.8-15 13.5-22.2.2-.4.7-.5 1.1-.2.4.2.5.7.2 1.1-4.7 7.2-9.2 14.6-13.4 22.1-.2.1-.4.3-.7.3z" fill="#a1c3fc"/><ellipse cx="264.6" cy="285.4" fill="#1c2868" rx="4.2" ry="11.4" transform="matrix(.5895 -.8078 .8078 .5895 -121.9295 330.908)"/><path d="M264.4 285.1c-.1 0-.3 0-.4-.1-.3-.2-.4-.7-.2-1.1 3.6-5.5 7.5-10.9 11.4-16.2.3-.3.7-.4 1.1-.2.3.3.4.7.2 1.1-3.9 5.2-7.7 10.7-11.3 16.1-.3.3-.5.4-.8.4z" fill="#a1c3fc"/><ellipse cx="277.9" cy="265.5" fill="#1c2868" rx="5.7" ry="15.2" transform="matrix(.5895 -.8078 .8078 .5895 -100.388 333.4617)"/><path d="M278.5 265.4c-.2 0-.3 0-.5-.2-.3-.3-.4-.7-.1-1.1 2.7-3.5 5.4-7 8.2-10.3.3-.3.7-.4 1.1-.1.3.3.4.7.1 1.1-2.7 3.4-5.5 6.8-8.1 10.3-.3.2-.5.3-.7.3z" fill="#a1c3fc"/></svg></g><g transform="translate(817.0 151.0) rotate(0.0 147.5 196.0) scale(0.9833333333333333 0.98)"><svg width="300" height="400" viewBox="0 0 300 400"><linearGradient id="l"><stop offset="0" stop-color="#81aef2"/><stop offset="1" stop-color="#78a9ef"/></linearGradient><linearGradient xmlns:xlink="http://www.w3.org/1999/xlink" id="n" gradientTransform="matrix(.2134 0 0 -.2134 -92.9325 -51.8863)" gradientUnits="userSpaceOnUse" x1="1446.361" x2="1516.83" xlink:href="#l" y1="-1497.405" y2="-1497.405"/><linearGradient xmlns:xlink="http://www.w3.org/1999/xlink" id="o" gradientTransform="matrix(.2134 0 0 -.2134 -92.9325 -51.8863)" gradientUnits="userSpaceOnUse" x1="1515.691" x2="1586.16" xlink:href="#l" y1="-1497.405" y2="-1497.405"/><linearGradient id="m"><stop offset="0" stop-color="#a1c3fc"/><stop offset="1" stop-color="#78a9ef"/></linearGradient><linearGradient xmlns:xlink="http://www.w3.org/1999/xlink" id="p" gradientTransform="matrix(.2134 0 0 -.2134 -92.9325 -51.8863)" gradientUnits="userSpaceOnUse" x1="1446.361" x2="1516.83" xlink:href="#m" y1="-1497.408" y2="-1497.408"/><linearGradient xmlns:xlink="http://www.w3.org/1999/xlink" id="q" gradientTransform="matrix(.2134 0 0 -.2134 -92.9325 -51.8863)" gradientUnits="userSpaceOnUse" x1="1515.691" x2="1586.16" xlink:href="#m" y1="-1497.408" y2="-1497.408"/><linearGradient xmlns:xlink="http://www.w3.org/1999/xlink" id="r" gradientTransform="matrix(.2134 0 0 -.2134 -92.9325 -51.8863)" gradientUnits="userSpaceOnUse" x1="1309.674" x2="1380.143" xlink:href="#l" y1="-1497.405" y2="-1497.405"/><linearGradient xmlns:xlink="http://www.w3.org/1999/xlink" id="s" gradientTransform="matrix(.2134 0 0 -.2134 -92.9325 -51.8863)" gradientUnits="userSpaceOnUse" x1="1379.009" x2="1449.477" xlink:href="#l" y1="-1497.405" y2="-1497.405"/><linearGradient xmlns:xlink="http://www.w3.org/1999/xlink" id="t" gradientTransform="matrix(.2134 0 0 -.2134 -92.9325 -51.8863)" gradientUnits="userSpaceOnUse" x1="1309.674" x2="1380.143" xlink:href="#m" y1="-1497.408" y2="-1497.408"/><linearGradient xmlns:xlink="http://www.w3.org/1999/xlink" id="u" gradientTransform="matrix(.2134 0 0 -.2134 -92.9325 -51.8863)" gradientUnits="userSpaceOnUse" x1="1379.009" x2="1449.477" xlink:href="#m" y1="-1497.408" y2="-1497.408"/><linearGradient xmlns:xlink="http://www.w3.org/1999/xlink" id="v" gradientTransform="matrix(.2134 0 0 -.2134 -92.9325 -51.8863)" gradientUnits="userSpaceOnUse" x1="1130.685" x2="1246.585" xlink:href="#m" y1="-1406.348" y2="-1406.348"/><path d="m258.9 362.5-5.2-14.2c-1.9-.1-3.7.1-5.5.7l5.6 15.4c.3.9-.1 1.8-1 2.1s-1.8-.1-2.1-1l-5.5-15.1c-1.7 1-3.1 2.4-4.3 4.1l4.7 12.7c.3.9-.1 1.8-1 2.1s-1.8-.1-2.1-1l-3.7-10c-2.1 5.2-2.2 11.8.1 18.3.1.2.1.3.2.4-1.2.7-2.4 1.5-3.5 2.3-3.2 2.4-7.3 6.3-8.8 12l1.6.4c1.4-5.2 5.2-8.9 8.2-11.1 1-.8 2.1-1.4 3.2-2.1 2.5 5.5 6.5 9.8 10.9 12.2l-3.5-9.5c-.3-.9.1-1.8 1-2.1s1.8.1 2.1 1l4.5 12.2c2 .5 3.9.6 5.9.3l-5.2-14.2c-.3-.9.1-1.8 1-2.1s1.8.1 2.1 1l5.3 14.4c1.7-.8 3.2-1.9 4.6-3.3l-4.8-13c-.3-.9.1-1.8 1-2.1s1.8.1 2.1 1l4.1 11.2c1.3-1.9 2.5-4 3.5-6.2l-2.6-7c-.3-.9.1-1.8 1-2.1s1.8.1 2.1 1l1.4 3.7c2.5-6.3 4.3-12.3 6.4-14.3-3.6-.8-8.7-4.2-14.3-7.2l1.8 4.8c.3.9-.1 1.8-1 2.1s-1.8-.1-2.1-1l-3-8.2c-2.2-1-4.4-1.8-6.6-2.3l4.6 12.5c.3.9-.1 1.8-1 2.1-1 .4-1.9-.1-2.2-.9z" fill="#e0ebfe"/><path d="M75.9 77.1h68.2v16.3H75.9z" fill="#d62929"/><path d="M68.6 66.2h68.2v10.9H68.6z" fill="#428dfc"/><path d="M80.6 80.5h64v9.4h-64z" fill="#d6d7d8"/><g fill="#eee"><path d="M80.6 87.5h64v1.2h-64zm0-2.3h64v1.2h-64zm0-2.4h64V84h-64zm0-2.3h64v1.2h-64z"/></g><path d="M72.2 49.8h80.4v16.4H72.2z" fill="#d62929"/><path d="M77.7 53.2h75.5v9.5H77.7z" fill="#d6d7d8"/><path d="M77.7 60.4h75.5v1.2H77.7zm0-2.4h75.5v1.2H77.7zm0-2.4h75.5v1.2H77.7zm0-2.4h75.5v1.2H77.7z" fill="#eee"/><path d="M21.9 0h20.2v94H21.9zm23.3 0h20.2v94H45.2z" fill="#d62929"/><path d="M21.9 25.3h20.2v43.4H21.9zm23.3 0h20.2v43.4H45.2z" fill="#e94a47"/><path d="M20.8 379.1H89v16.1H20.8z" fill="#d62929"/><path d="M14.1 368.2h70.7v10.9H14.1z" fill="#428dfc"/><path d="M25.5 382.5h64v9.4h-64z" fill="#d6d7d8"/><path d="M25.5 389.5h64v1.2h-64zm0-2.3h64v1.2h-64zm0-2.4h64v1.2h-64zm0-2.3h64v1.2h-64z" fill="#eee"/><path d="M17.1 351.8h80.4v16.4H17.1z" fill="#d62929"/><path d="M22.6 355.2h75.5v9.5H22.6z" fill="#d6d7d8"/><path d="M22.6 362.4h75.5v1.2H22.6z" fill="#eee"/><path d="M232 328.3h11V396h-11z" fill="#428dfc"/><path d="M216.4 316.1H232V396h-15.6z" fill="#d62929"/><path d="M22.6 360h75.5v1.2H22.6zm0-2.4h75.5v1.2H22.6zm0-2.4h75.5v1.2H22.6z" fill="#eee"/><path d="M10.9 93.4h241.4v5H10.9zM9.4 395h241.4v5H9.4z" fill="#d6d7d8"/><path d="m143.296 24.478 12.01-4.427 25.382 68.872-12.01 4.426z" fill="#1d72d8"/><path d="m156.798 24.492 12.01-4.426 25.382 68.871-12.01 4.426z" fill="#428dfc"/><path d="m171.655 28.157 11.37-5.877 33.705 65.2-11.37 5.878z" fill="#78a9ef"/><path d="m149.196 297.638 25.381-68.872 12.01 4.427-25.381 68.87z" fill="#1d72d8"/><path d="m135.669 297.6 25.382-68.87 12.01 4.425-25.382 68.872zM206.6 117.1h13.1v81.1h-13.1z" fill="#428dfc"/><path d="M219.5 111.5h20.4v86.8h-20.4z" fill="#23286b"/><path d="M223.7 110.9h11.9v81.5h-11.9z" fill="#d6d7d8"/><path d="M232.7 110.9h1.5v81.5h-1.5zm-3 0h1.5v81.5h-1.5zm-3 0h1.5v81.5h-1.5zm-3 0h1.5v81.5h-1.5z" fill="#eee"/><path d="M187.7 102.6h19.1v95.7h-19.1z" fill="#d62929"/><path d="M18.6 132.4h14.5v66.9H18.6z" fill="#a1c3fc"/><path d="m68.2 135.2 10.9-3 16.8 62.5-10.8 3z" fill="#78a9ef"/><path d="m77.9 171 10.8-3 .8 2.9-10.8 3z" fill="#d6d7d8"/><path d="M18.6 174.8h14.5v4.4H18.6zm0 8.6h14.5v4.4H18.6z" fill="#428dfc"/><path d="M36.2 132.4h14.5v66.9H36.2z" fill="#a1c3fc"/><path d="M36.2 174.8h14.5v4.4H36.2zm0 8.6h14.5v4.4H36.2z" fill="#428dfc"/><path d="M53.8 132.4h14.5v66.9H53.8z" fill="#a1c3fc"/><path d="M53.8 174.8h14.5v4.4H53.8zm0 8.6h14.5v4.4H53.8z" fill="#428dfc"/><path d="m93.439 325.2 15.116-2.363 10.908 69.752-15.117 2.364z" fill="#a1c3fc"/><path d="m100.335 369.51 15.117-2.364.71 4.545-15.116 2.364zm1.395 8.9 15.117-2.364.71 4.545-15.116 2.364z" fill="#428dfc"/><path d="m112.239 325.2 15.116-2.364 10.908 69.753-15.117 2.364z" fill="#a1c3fc"/><path d="m119.135 369.51 15.117-2.364.71 4.544-15.116 2.364zm1.395 8.9 15.117-2.364.71 4.544-15.116 2.364z" fill="#428dfc"/><path d="m131.039 325.2 15.116-2.364 10.908 69.753-15.117 2.364z" fill="#a1c3fc"/><path d="m137.935 369.51 15.117-2.365.71 4.545-15.116 2.364zm1.395 8.9 15.117-2.365.71 4.545-15.116 2.364z" fill="#428dfc"/><path d="M100.2 132.4h14.5v66.9h-14.5z" fill="#a1c3fc"/><path d="M100.2 174.8h14.5v4.4h-14.5zm0 8.6h14.5v4.4h-14.5z" fill="#428dfc"/><path d="M117.8 132.4h14.5v66.9h-14.5z" fill="#a1c3fc"/><path d="M117.8 174.8h14.5v4.4h-14.5zm0 8.6h14.5v4.4h-14.5z" fill="#428dfc"/><path d="M135.4 132.4h14.5v66.9h-14.5z" fill="#a1c3fc"/><path d="M135.4 174.8h14.5v4.4h-14.5zm0 8.6h14.5v4.4h-14.5z" fill="#428dfc"/><path d="M87.9 244.6h12.6v58.3H87.9z" fill="#a1c3fc"/><path d="M87.9 274.6h12.6v7.6H87.9zm0 14.5h12.6v3.8H87.9z" fill="#428dfc"/><path d="M103.3 244.6h12.6v58.3h-12.6z" fill="#a1c3fc"/><path d="M103.3 274.6h12.6v7.6h-12.6zm0 14.5h12.6v3.8h-12.6z" fill="#428dfc"/><path d="M118.6 244.6h12.6v58.3h-12.6z" fill="#a1c3fc"/><path d="M118.6 274.6h12.6v7.6h-12.6zm0 14.5h12.6v3.8h-12.6z" fill="#428dfc"/><path d="M16.7 237.5h14.1v65.1H16.7z" fill="#23286b"/><path d="m30.6 235.1 14.4-.8 3.8 66.9-14.4.9z" fill="#d62929"/><path d="M16.7 255h14.1v30H16.7z" fill="#1d72d8"/><path d="M70.6 237.5h14.1v65.1H70.6z" fill="#d62929"/><path d="M70.6 255h14.1v30H70.6zm-39-1.9 14.4-.8 1.8 30.9-14.4.8z" fill="#e94a47"/><path d="m45.21 237.464 13.967-1.929 8.905 64.488-13.967 1.93z" fill="#d62929"/><path d="m47.617 254.899 13.967-1.93 4.104 29.719-13.967 1.929z" fill="#e94a47"/><path d="M215.7 232.9h15v69.6h-15z" fill="url(#n)"/><path d="M230.5 232.9h15v69.6h-15z" fill="url(#o)"/><path d="M215.7 251.6h15v32.1h-15z" fill="url(#p)"/><path d="M230.5 251.6h15v32.1h-15z" fill="url(#q)"/><path d="M186.6 232.9h15v69.6h-15z" fill="url(#r)"/><path d="M201.3 232.9h15v69.6h-15z" fill="url(#s)"/><path d="M186.6 251.6h15v32.1h-15z" fill="url(#t)"/><path d="M201.3 251.6h15v32.1h-15z" fill="url(#u)"/><path d="M10.9 197.7h241.4v5H10.9zm143.332 86.216 2.282-6.193 12.01 4.426-2.282 6.193z" fill="#d6d7d8"/><path d="m148.4 263.3 12 4.4 12.7-34.5-12-4.5z" fill="url(#v)"/><path d="M10.9 302.1h240v5h-240z" fill="#d6d7d8"/><path d="M213.7 394.8h-.2c-.4-.1-.6-.5-.5-.9 5-17.7 11.4-35.2 19-52.2.2-.4.6-.6 1-.4s.6.6.4 1c-7.5 16.8-13.9 34.3-18.9 52-.2.3-.5.5-.8.5z" fill="#a1c3fc"/><ellipse cx="233.6" cy="340.4" fill="#1c2868" rx="3.5" ry="9.4" transform="matrix(.4038 -.9149 .9149 .4038 -172.1112 416.6628)"/><path d="M233.6 340.7c-.1 0-.2 0-.3-.1-.4-.2-.6-.6-.4-1 4.3-9.5 9.1-19 14.1-28.1.2-.4.7-.5 1-.3.4.2.5.7.3 1-5 9.1-9.8 18.5-14.1 28-.1.3-.4.5-.6.5z" fill="#a1c3fc"/><ellipse cx="248.9" cy="309.8" fill="#1c2868" rx="4.2" ry="11.4" transform="matrix(.3128 -.9498 .9498 .3128 -123.256 449.2959)"/><path d="M249 310.3c-.1 0-.3 0-.4-.1-.4-.2-.5-.7-.3-1 4.2-7.5 8.8-15 13.5-22.2.2-.4.7-.5 1.1-.2.4.2.5.7.2 1.1-4.7 7.2-9.2 14.6-13.4 22.1-.2.1-.4.3-.7.3z" fill="#a1c3fc"/><ellipse cx="264.6" cy="285.4" fill="#1c2868" rx="4.2" ry="11.4" transform="matrix(.5895 -.8078 .8078 .5895 -121.9295 330.908)"/><path d="M264.4 285.1c-.1 0-.3 0-.4-.1-.3-.2-.4-.7-.2-1.1 3.6-5.5 7.5-10.9 11.4-16.2.3-.3.7-.4 1.1-.2.3.3.4.7.2 1.1-3.9 5.2-7.7 10.7-11.3 16.1-.3.3-.5.4-.8.4z" fill="#a1c3fc"/><ellipse cx="277.9" cy="265.5" fill="#1c2868" rx="5.7" ry="15.2" transform="matrix(.5895 -.8078 .8078 .5895 -100.388 333.4617)"/><path d="M278.5 265.4c-.2 0-.3 0-.5-.2-.3-.3-.4-.7-.1-1.1 2.7-3.5 5.4-7 8.2-10.3.3-.3.7-.4 1.1-.1.3.3.4.7.1 1.1-2.7 3.4-5.5 6.8-8.1 10.3-.3.2-.5.3-.7.3z" fill="#a1c3fc"/></svg></g><g transform="translate(574.0 143.0) rotate(0.0 105.5 176.0) scale(0.8791666666666667 0.88)"><svg width="240" height="400" viewBox="0 0 240 400"><path d="m110.1 164.3-1-.2c1.6-7.9 3.5-14.4 5.4-20.7 3.5-11.6 6.8-22.6 6.6-40h1c.2 17.5-3.1 28.6-6.6 40.3-1.9 6.3-3.9 12.8-5.4 20.6zm2.2 84.2h6.8v33.4h-6.8zm-8.9 0h6.8v33.4h-6.8zm-8.9 0h6.8v33.4h-6.8zm-8.9 0h6.8v33.4h-6.8z" fill="#a1c3fc"/><path d="M5.2 281.6h122.5v5.1H5.2z" fill="#eee"/><path d="M209.1 214.6v-6.4l2.7-.6-2.7-.3c0-.9 0-1.9-.1-2.8.8-.4 1.6-.9 2.4-1.4-.8.2-1.6.3-2.5.5-.1-.9-.3-1.9-.6-2.7.7-.3 1.3-.7 1.8-1.2-.8 0-1.6-.1-2.5-.2-.2-.4-.5-.8-.8-1.1-.5-.5-1.1-1-1.7-1.1-1.1-.1-1.9.7-2.5 1.8 0-.1-.1-.1-.1-.2-.5-.8-1.4-1.3-2.2-1.6.6 1 1.2 2.1 1.7 3.1-.2.6-.4 1.1-.6 1.7-1 .3-1.9.7-2.9 1.1.8.2 1.7.4 2.5.5-.3 1.3-.4 2.6-.6 3.9-.9.1-1.8.1-2.7.1.8.4 1.7.7 2.6.9-.1 1.3-.1 2.6 0 3.9-1.1-.3-2.3-.5-3.5-.4 1.1.8 2.3 1.4 3.5 1.8.1 2.9.5 5.8.7 8.6 2.1-1.2 5.6.6 7.8-.4v-6.7c.8 0 1.6.2 2.3.4-.5-.5-1.2-.9-2-1.2z" fill="#a1c3fc"/><path d="M161.4 112.5c-.7-.9-1.6-1.8-2-3-.8-2.4.4-4.9 1.2-7.3s1.2-5.5-.8-7c-1.6-1.3-4.5-1.2-5.3-3.1-.3-.7-.2-1.5-.3-2.3-.5-3.3-4.8-4.9-8-3.8s-5.4 3.9-7.5 6.6c-.7 1-1.4 2.5-.5 3.3.9.7 2.5-.1 3.3.7.7.7.2 1.8-.4 2.5s-1.5 1.3-1.6 2.2c-.3 1.8 1.9 2.8 3.7 3s4 .7 4.3 2.5c-2.4 2.8-4.9 6.4-3.7 9.9 1.4 4 6.3 5.8 10.1 7.8 7 3.8 9.8 11.5 11.3 19.2 4.6-10.2 3.1-22.6-3.8-31.2z" fill="#dfebfe"/><path d="M162.6 41.9c-.1.7-.1 1.4-.1 2.1 0 9.9 8 17.8 17.8 17.8 9.9 0 17.8-8 17.8-17.8 0-.7-.1-1.4-.1-2.1z" fill="#cfe0fd"/><path d="m126.3 8.6.2-8.6h-.2l-3.4 7.8z" fill="#a1c3fc"/><path d="m112.021 59.03 11.004-51.438 3.423.732-11.004 51.438zM124.7 3.7l1.7.3.1-4h-.2zm-9 14-2-6.7h-.1l-.8 6.9z" fill="#a1c3fc"/><path d="m112.822 17.706 2.789-.246 3.758 42.533-2.79.247zm.378-3.406 1.4-.2-.9-3.1h-.1zm-22.7 93.5h11.6v56.6H90.5zM69.525 279.534l10.41-31.209 6.45 2.152-10.41 31.209z" fill="#a1c3fc"/><path d="m72.36 162.609 11.525-46.187 6.404 1.598-11.524 46.187z" fill="#bfd6fd"/><path d="m60.836 161.65 15.98-44.84 6.217 2.216-15.98 44.839zM134.2 338.8h11.6v56.3h-11.6zm11.942 10.207 6.404-1.598 11.524 46.186-6.404 1.598zm7.261.967 6.217-2.215 15.98 44.839-6.218 2.215zM180.6 164.5h-30.2l-5.3-35.2h40.8zm14.8-102.3h-30.2l-5.3-5h40.8z" fill="#a1c3fc"/><path d="M149.6 313.3h57.9v11.2h-57.9z" fill="#cee0fd"/><path d="M141.1 302.2H199v11.2h-57.9zm-69.7-77.4h57.9V236H71.4z" fill="#a1c3fc"/><path d="M62.9 213.6h57.9v11.2H62.9z" fill="#d6d7d8"/><g fill="#a1c3fc"><path d="M77.3 202.3h46.6v11.3H77.3zm87.7-67.6c-.1-6.7.3-13.4 1.1-20"/><path d="M165 135.2c-.3 0-.5-.2-.5-.5-.1-6.7.3-13.4 1.1-20.1 0-.3.3-.5.6-.4.3 0 .5.3.4.6-.8 6.6-1.2 13.3-1.1 20 .1.2-.2.4-.5.4z"/><ellipse cx="166.3" cy="114.1" rx="1.3" ry="3.4" transform="matrix(.1215 -.9926 .9926 .1215 32.9182 265.2936)"/><path d="M166.3 113.9c.5-3.8 1.1-7.5 1.9-11.2"/><path d="M166.3 114.4c-.1 0-.1 0 0 0-.3 0-.5-.3-.5-.6.5-3.8 1.2-7.5 2-11.2.1-.3.3-.4.6-.4.3.1.5.3.4.6-.8 3.7-1.4 7.4-1.9 11.2-.2.2-.4.4-.6.4z"/><ellipse cx="168.4" cy="101.9" rx="1.5" ry="4.1" transform="matrix(.02420017 -.9997 .9997 .02420017 62.4662 267.7468)"/><path d="M168.4 101.7c.7-3.1 1.5-6.1 2.3-9.1"/><path d="M168.4 102.2h-.1c-.3-.1-.5-.3-.4-.6.7-3.1 1.5-6.1 2.4-9.1.1-.3.4-.4.6-.3.3.1.4.4.3.6-.9 3-1.7 6-2.3 9.1 0 .2-.3.3-.5.3z"/><ellipse cx="171.3" cy="91.7" rx="1.5" ry="4.1" transform="matrix(.3303 -.9439 .9439 .3303 28.1268 223.1346)"/><path d="M171.1 91.4c.7-2.3 1.4-4.5 2.2-6.8"/><path d="M171.1 91.9h-.1c-.3-.1-.4-.4-.3-.6.7-2.3 1.5-4.6 2.3-6.8.1-.3.4-.4.7-.3s.4.4.3.7c-.8 2.2-1.6 4.5-2.2 6.8-.2.1-.5.2-.7.2z"/><ellipse cx="173.8" cy="83.5" rx="2.1" ry="5.5" transform="matrix(.3303 -.9439 .9439 .3303 37.6398 219.9514)"/><path d="M78.6 324H53.1l-4.4-4.5H83zm-24.3 36.2h43v35.2h-43z"/></g><path d="M197.2 219.8h15.5v16.1h-15.5z" fill="#eee"/><path d="M105.1 30h20.6v34.1h-20.6zm68.8 53.1c.6-1.5 1.1-3 1.7-4.4" fill="#a1c3fc"/><path d="M173.9 83.6h-.2c-.3-.1-.4-.4-.3-.7.6-1.5 1.1-3 1.7-4.4.1-.3.4-.4.7-.3s.4.4.3.7c-.6 1.5-1.2 2.9-1.7 4.4-.1.2-.3.3-.5.3z" fill="#a1c3fc"/><path d="M109.7 169.4H33.5V93.2h76.2zm-71-5.2h65.9V98.3H38.7z" fill="#eee"/><path d="M213.7 67.4h-66.9V.5h66.9zM152 62.3h56.6V5.7H152zm72 178.1H26.3v-76.2H224zm-192.5-5.1h187.4v-65.9H31.5zM224 400H26.3v-76.2H224zm-192.5-5.1h187.4V329H31.5z" fill="#d6d7d8"/><path d="M124.1 65.9h5.1v101.9h-5.1zm0 171.9h5.1v159.6h-5.1z" fill="#d6d7d8"/><path d="M89.6 62.3h145.2v5.1H89.6z" fill="#eee"/><path d="M50.9 306.6c-.1.6-.1 1.1-.1 1.7 0 8.3 6.7 15 15 15s15-6.7 15-15c0-.6 0-1.2-.1-1.7zm11.038 51.39 4.597-4.596 4.596 4.596-4.596 4.596zm18.39-.026 4.596-4.596 4.597 4.596-4.597 4.597z" fill="#a1c3fc"/><path d="M68.1 356.9H64c0-4.8.1-9.7 1.8-12.9 1.7-3.5 6.3-7.1 10.7-7 5.3.2 9.5 5.2 10.3 8.6.9 3.5.5 9.7.4 10.9l-4.1-.3c.2-3.3.2-7.6-.3-9.6-.4-1.8-3.1-5.3-6.5-5.5-2.3-.1-5.6 2.1-6.8 4.7-1.4 2.7-1.4 8-1.4 11.1zm47.8-192.5-1-.3c7.5-27.6 9.8-50.1 7.7-73.1l1-.1c2.2 23.1-.2 45.7-7.7 73.5z" fill="#a1c3fc"/><path d="m112.8 164.3-1-.2c1-4.9 2-9.8 3.1-14.5 3.8-17.6 7.5-34.2 7.2-55.1h1c.2 21-3.4 37.7-7.3 55.3-.9 4.7-2 9.6-3 14.5z" fill="#a1c3fc"/></svg></g><g transform="translate(536.0 269.0) rotate(0.0 49.0 139.5) scale(0.6398119736240778 0.6381139273510724)"><svg width="153.17" height="437.226" viewBox="0 0 153.17 437.226"><linearGradient id="w"><stop offset="0" stop-color="#428dfc"/><stop offset="1" stop-color="#1d72d8"/></linearGradient><linearGradient xmlns:xlink="http://www.w3.org/1999/xlink" id="y" gradientUnits="userSpaceOnUse" x1="11.893" x2="76.633" xlink:href="#w" y1="426.763" y2="426.763"/><linearGradient id="z" gradientUnits="userSpaceOnUse" x1="63.545" x2="23.825" y1="276.74" y2="329.004"><stop offset="0" stop-color="#a1c3fc"/><stop offset="1" stop-color="#78a9ef"/></linearGradient><linearGradient id="x"><stop offset="0" stop-color="#ffc5be"/><stop offset="1" stop-color="#f2a19c"/></linearGradient><linearGradient xmlns:xlink="http://www.w3.org/1999/xlink" id="A" gradientTransform="matrix(.9476 .3195 -.3195 .9476 11.5257 -12.1646)" gradientUnits="userSpaceOnUse" x1="116.387" x2="95.26" xlink:href="#x" y1="92.843" y2="79.322"/><linearGradient xmlns:xlink="http://www.w3.org/1999/xlink" id="B" gradientTransform="matrix(.9666 -.2562 .2562 .9666 -36.1833 36.9082)" gradientUnits="userSpaceOnUse" x1="47.216" x2="91.828" xlink:href="#w" y1="170.205" y2="153.253"/><linearGradient xmlns:xlink="http://www.w3.org/1999/xlink" id="C" gradientTransform="matrix(.9247 .3806 -.3806 .9247 89.7186 -12.165)" gradientUnits="userSpaceOnUse" x1="21.474" x2="26.544" xlink:href="#x" y1="253.499" y2="209.978"/><linearGradient xmlns:xlink="http://www.w3.org/1999/xlink" id="D" gradientTransform="matrix(.9247 .3806 -.3806 .9247 89.7186 -12.165)" gradientUnits="userSpaceOnUse" x1="13.826" x2="45.649" xlink:href="#w" y1="192.143" y2="160.32"/><linearGradient xmlns:xlink="http://www.w3.org/1999/xlink" id="E" gradientTransform="matrix(.9666 -.2562 .2562 .9666 -36.1833 36.9082)" gradientUnits="userSpaceOnUse" x1="184.083" x2="178.59" xlink:href="#x" y1="27.477" y2="39.308"/><path d="M76.633 437.122c-10.52-10.253-22.351-11.521-27.768-20.731-1.966.465-29.256-.352-30.418 0-.592 1.515-.447 3.358-.941 4.939-.565 1.809-1.547 3.418-2.348 5.137-1.532 3.288-3.299 7.146-3.264 10.759 1.2-.19 62.654-.208 64.739-.104z" fill="url(#y)"/><path d="M56.513 229.767c-1.5 12.5-.329 30.781.272 40.598.676 11.041 3.105 21.53 6.528 32.008 4.29 13.132 8.98 25.458 4.139 38.505-2.546 6.861-7.309 12.496-10.158 19.155-3.038 7.101-5.485 14.467-7.624 21.868-3.104 10.742-4.359 24.12-9.301 33.702-7.148-1.138-14.09 1.356-21.499-.681 2.67-10.795 1.952-24.202 3.073-35.382.187-1.86-.051-5.9.601-7.606 1.092-2.859 4.618-4.15 5.625-6.972 1.994-5.589-2.241-10.766.109-17.098 2.452-6.608 6.639-10.655 10.84-15.736 4.534-5.483 2.385-7.99.587-14.855-3.365-12.854-1.218-26.826-4.615-39.756-2.953-11.239-7.221-26.59-5.387-39.279 2.31-15.971 22.023-22.853 26.81-8.471z" fill="#78a9ef"/><path d="M25.01 203.281c6.398.052 14.791 2.907 20.647 7.718 3.82 3.138 15.936 6.214 15.936 6.214s-.715 2.148-1.526 4.422c-2.283 6.403-4.769 23.989-5.153 25.281-.372 1.249.061 3.364-.136 4.809-.691 5.071-6.056 159.488-4.017 166.555-2.854-.136-30.303.272-33.565 0-1.823-11.282-7.17-27.595-4.111-39.373 1.436-5.53 4.801-8.229 5.068-14.103.254-5.597-1.64-10.552-3.167-15.812-3.438-11.841-7.974-18.229-3.169-30.296 5.081-12.761 5.565-32.121 5.704-46.268.152-15.479-4.686-20.635-4.643-36.307.053-19.178 10.086-31.339 12.132-32.84z" fill="url(#z)"/><path d="M107.717 90.547c.226 2.981.836 8.974 3.676 10.885 2.053 1.382 4.597 1.491 7.232.969 3.808-3.606 7.306-7.359 9.304-11.925 3.882-8.874 6.82-17.606 11.629-26.264 4.493-8.088 8.338-16.739 12.42-25.173-4.266-1.1-6.559-3.482-10.404-4.512-3.671 10.775-6.814 19.133-14.13 28.452-6.395 8.145-13.108 16.035-19.753 23.962a25.883 25.883 0 0 0 .026 3.606z" fill="#f2a19c"/><path d="M110.487 82.497c2.624 3.288 6.93 7.295 9.493 10.934 2.677 3.801 5.622 7.868 7.051 12.28-9.627 4.084-17.193 8.01-25.076 15.05-7.969 7.116-17.195 14.757-27.446 18.224-3.73 1.261-9.578 2.652-12.852-.474-3.473-3.316-.52-9.032 1.806-12.694 4.643-7.313 11.554-15.477 18.08-21.124 10.103-8.744 29.002-22.228 28.944-22.196z" fill="#1d72d8"/><path d="M94.172 96.603c-6.357 10.112-6.697 18.386-9.543 27.599-7.412 1.287-16-2.135-20.391-6.186 2.505-7.052 3.279-18.561.963-25.633 4.427 3.322 28.996 2.677 28.971 4.22z" fill="#f2a19c"/><path d="M61.207 70.247c12.151-10.244 27.285 7.852 33.654 12.156 6.435 4.35 2.529 16.493.24 24.081-1.263 4.188-9.04 5.844-13.114 6.904-13.177 3.427-24.917-5.164-29.176-18.141-1.999-6.09-1.942-12.898 1.265-18.842 3.578-6.631 7.131-6.158 7.131-6.158z" fill="url(#A)"/><path d="M75.475 118.586c29.268 7.312 16.311 61.741 25.546 84.093 1.8 4.356 4.752 11.458 4.752 11.458s-2.997 1.282-5.761 2.165c-5.749 1.836-15.12 4.203-21.125 4.227-14.853.058-25.452-1.504-40.064-7.302-3.233-1.283-15.154-7.652-15.154-7.652s5.343-11.984 7.114-16.743c3.56-9.566 8.139-18.582 11.863-27.993 4.437-11.215 10.474-44.855 28.591-43.021 1.897.25 3.045.5 4.238.768z" fill="url(#B)"/><path d="M62.364 67.539c8.929-5.843 23.078-3.313 29.229 5.968-4.66 4.038-9.646 5.603-9.506 12.814.475 24.565-15.025 33.477-20.828 28.962-4.247-3.305 1.928-40.22 2.549-45.767.622.107-1.284-2.87-1.444-1.977z" fill="#e94a47"/><path d="M64.13 66.378c-9.471-.013-26.323 7.424-21.001 21.689 2.275 6.098 8.718 7.702 9.691 12.263 1.32 6.188-7.154 3.194-10.774 1.828 2.46 7.839 4.779 11.326 12.123 15.639 4.488 2.636 7.688 4.376 14.066-1.056 16.049-13.671 11.219-28.728 5.57-43.864-1.097-.371-7.42-4.39-9.675-6.499z" fill="#e94a47"/><path d="M71.66 135.556c-4.948 12.877-16.131 26.202-24.771 36.65-4.644 5.615-10.152 11.484-14.584 16.611-1.268 1.466-4.593 9.952-6.749 15.86-2.291 6.276-4.783 11.713-7.347 17.85-1.944 4.654-5.842 13.579-4.569 18.634 1.436 5.705 10.449 8.257 11.11 13.879.562 4.778.085 6.247-4.489 9.832-1.559 1.221-8.171.145-6.814-2.805C19.017 249.959.344 251.952.07 245.627c-.232-5.355.091-9.903 1.536-18.254 1.214-7.015 3.699-18.787 5.135-25.705 1.225-5.903 2.333-13.637 4.979-19.14 2.846-5.918 7.65-9.735 11.991-14.562 10.161-11.296 20.479-22.198 31.256-32.811 5.936-5.846 22.45-14.579 16.693.401z" fill="url(#C)"/><path d="M73.301 125.368c-10.54-9.62-51.313 41.363-59.654 50.762 6.572 6.826 22.06 22.469 22.06 22.469s3.077-9.891 11.582-21.39c5.729-7.746 11.765-16.309 18.013-23.657 2.692-3.167 16.26-20.645 7.999-28.184z" fill="url(#D)"/><path d="M149.98 40.816c.815-4.171 2.01-5.847.905-10.214-.791-3.128-1.854-5.838-2.232-8.914-.526-4.274 1.456-23.058-3.26-21.609-2.798 1.609-5.574 16.762-5.567 20.192.006 3.135 1.45 7.525 1.869 10.859.529 4.219-.998 6.055-1.491 10.153 2.048-1.245 6.221-.466 8.484-1.659.272.607 2.02.747 1.292 1.192z" fill="#f2a19c"/><path d="M147.236 46.536c1.668-2.792 4.57-5.917 5.286-9.114.903-4.03-1.402-7.269-2.149-11.245-.972-5.178 4.98-16.704 1.906-20.005-1.343-1.787-6.047 15.895-5.412 19.331.782 4.232 2.63 5.724 1.932 10.364-.616 4.107-2.357 6.315-1.563 10.669z" fill="#f2a19c"/><path d="M92.852 72.017a.497.497 0 0 1-.357-.15c-.063-.064-6.471-6.463-13.006-7.995-4.578-1.074-12.603-.981-15.949 3.669a.5.5 0 0 1-.812-.584c3.916-5.442 12.824-5.035 16.989-4.059 6.921 1.622 13.428 8.203 13.493 8.269a.502.502 0 0 1-.358.85z" fill="#e94a47"/><path d="M89.947 80.878c-.125 0-.249-.005-.371-.015a.5.5 0 0 1-.458-.539.506.506 0 0 1 .539-.458c1.955.157 4.387-1.295 4.899-3.707a.5.5 0 0 1 .979.207c-.609 2.866-3.294 4.512-5.588 4.512z" fill="#23286b"/><path d="M89.226 101.903a.498.498 0 0 1-.343-.136c-8.533-8.046-9.936-19.39-3.575-28.901a.5.5 0 0 1 .831.555c-6.075 9.084-4.729 19.925 3.43 27.618a.5.5 0 0 1-.343.864z" fill="#e94a47"/><path d="M88.517 106.698a.498.498 0 0 1-.469-.328c-.07-.086-.202-.224-.381-.415-1.373-1.466-5.55-5.927-7.332-12.956-.8-3.159-1.172-7.206-1.323-9.338-.23-3.245-.369-9.242 1.281-12.952a.5.5 0 0 1 .914.406c-1.562 3.512-1.421 9.323-1.198 12.475.149 2.098.515 6.079 1.296 9.162 1.718 6.779 5.763 11.099 7.092 12.518.557.595.811.866.51 1.24a.498.498 0 0 1-.39.188z" fill="#e94a47"/><path d="M142.804 27.052c.348-1.215.182-2.568.184-3.813.003-1.237.288-2.414.512-3.619.273-1.47.454-2.916.677-4.385.106-.696.368-2.346 1.034-2.768 1.76-1.115 2.129 2.947 2.158 3.916.057 1.923-.443 3.794-.486 5.699-.091 3.973 4.472 6.984 3.78 10.853-.327 1.826-1.48 3.185-2.735 4.436-1.037 1.034-3.203 3.501-3.897.707-.445-1.791-.124-3.796-.499-5.649-.206-1.017-.329-2.001-.498-3.024-.073-.444-.212-.886-.237-1.334-.019-.355.287-1.111.007-1.019z" fill="url(#E)"/><path d="M46.816 210.783a.172.172 0 0 0-.242-.037.173.173 0 1 0 .204.279.172.172 0 0 0 .038-.242zm-15.297-9.063a.177.177 0 0 0-.148-.204.163.163 0 0 0-.194.151.172.172 0 0 0 .136.2.182.182 0 0 0 .206-.147zm7.452 5.088a.195.195 0 0 0-.064-.248.18.18 0 0 0-.248.064.18.18 0 0 0 .064.248.196.196 0 0 0 .248-.064zm17.826-14.773a.339.339 0 0 0-.088-.465.321.321 0 0 0-.449.063c-.003.006-.007.009-.011.015a.339.339 0 0 0 .088.465.33.33 0 0 0 .46-.078zm-4.589 6.603a.333.333 0 0 0-.095-.463.332.332 0 0 0-.458.087.33.33 0 0 0 .077.459.356.356 0 0 0 .476-.083zm-4.603 6.612a.326.326 0 0 0-.079-.456c-.003-.003-.007-.004-.01-.006a.321.321 0 0 0-.449.063c-.003.006-.007.009-.011.015a.359.359 0 0 0 .083.476.346.346 0 0 0 .466-.092zm18.301 1.377a.329.329 0 0 0-.459-.085.329.329 0 0 0-.085.459.331.331 0 0 0 .452.09.34.34 0 0 0 .092-.464zm-6.775 4.347a.33.33 0 1 0-.092.464.34.34 0 0 0 .092-.464zM40.817 189.08a.337.337 0 0 0-.26-.394.326.326 0 0 0-.389.246s-.002.003 0 .004a.318.318 0 0 0 .219.394l.025.007c.181.03.357-.08.405-.257zm-1.722 7.867a.354.354 0 0 0-.255-.405.336.336 0 0 0-.394.26.33.33 0 0 0 .253.393l.005.001c.176.04.35-.07.389-.244l.002-.005zm-1.719 7.855a.315.315 0 0 0-.233-.384l-.015-.003a.33.33 0 0 0-.402.238l-.005.016a.334.334 0 0 0 .653.139l.002-.006zm32.616 8.579a.3.3 0 0 0-.398-.13.296.296 0 0 0 .268.528.301.301 0 0 0 .13-.398zM46.945 194.06a.314.314 0 0 0-.201-.382.286.286 0 0 0-.362.182l-.003.013a.294.294 0 0 0 .183.374c.001.001.004 0 .005.002a.31.31 0 0 0 .378-.189zm-2.201 6.827a.295.295 0 0 0-.193-.367.286.286 0 0 0-.362.182l-.003.013a.299.299 0 0 0 .183.377c.001.001.004 0 .005.002a.309.309 0 0 0 .37-.207zm-2.198 6.851a.299.299 0 0 0-.183-.377l-.005-.002a.28.28 0 0 0-.359.168c-.004.008-.006.018-.008.028a.299.299 0 0 0 .183.377c.001.001.004 0 .005.002a.307.307 0 0 0 .367-.196zm15.954-2.975a.3.3 0 0 0-.043-.418.292.292 0 0 0-.413.032.311.311 0 0 0 .027.424.31.31 0 0 0 .429-.038zm-4.656 5.476a.286.286 0 0 0-.03-.413.292.292 0 0 0-.413.032.311.311 0 0 0 .027.424.299.299 0 0 0 .416-.043zm-21.388-14.316a.281.281 0 0 0-.297-.264l-.017.001a.298.298 0 0 0-.279.321c.02.162.164.279.326.267a.292.292 0 0 0 .268-.312c.001-.004-.001-.008-.001-.013zm.59 7.165a.304.304 0 0 0-.322-.278.3.3 0 0 0 .044.599.294.294 0 0 0 .278-.321zm40.976 3.817a.355.355 0 0 0-.053-.488.343.343 0 0 0-.482.041.35.35 0 0 0 .053.488c.145.121.36.102.482-.041zm-5.307 6.377a.342.342 0 1 0-.523-.44.342.342 0 0 0 .523.44zm-27.97-16.969a.362.362 0 0 0-.383-.317.347.347 0 0 0 .07.689.351.351 0 0 0 .313-.372zm.762 8.258a.352.352 0 0 0-.372-.312.343.343 0 1 0 .372.312zm16.333-2.375a.366.366 0 0 0-.23-.434.348.348 0 0 0-.423.235.335.335 0 0 0 .222.428.344.344 0 0 0 .431-.229zm-2.461 7.929a.346.346 0 0 0-.23-.433l-.001-.001a.333.333 0 0 0-.417.224.34.34 0 0 0 .648.21zm8.144-7.647a.341.341 0 0 0-.649-.209.339.339 0 0 0 .207.423.347.347 0 0 0 .442-.214zm-2.773 7.785a.348.348 0 0 0-.215-.44.352.352 0 0 0-.435.203.365.365 0 0 0 .21.451.354.354 0 0 0 .44-.214zm-14.428-6.137a.348.348 0 0 0-.367-.323.338.338 0 0 0-.318.356.335.335 0 0 0 .337.331c.005 0 .01.001.015-.002a.343.343 0 0 0 .335-.352l-.002-.01z" fill="#fff"/></svg></g><g transform="translate(1002.0 269.0) rotate(0.0 76.5 199.5) scale(0.7946235665614093 0.7930907681451813)"><svg width="192.544" height="503.095" viewBox="0 0 192.544 503.095"><linearGradient id="F"><stop offset="0" stop-color="#a1c3fc"/><stop offset="1" stop-color="#78a9ef"/></linearGradient><linearGradient xmlns:xlink="http://www.w3.org/1999/xlink" id="H" gradientTransform="matrix(.9976 -.069 .069 .9976 10.551 -78.9908)" gradientUnits="userSpaceOnUse" x1="14.767" x2="89.944" xlink:href="#F" y1="571.769" y2="571.769"/><linearGradient xmlns:xlink="http://www.w3.org/1999/xlink" id="I" gradientTransform="matrix(.9976 -.069 .069 .9976 10.551 -78.9908)" gradientUnits="userSpaceOnUse" x1="-10.722" x2="64.692" xlink:href="#F" y1="573.028" y2="573.028"/><linearGradient id="J" gradientUnits="userSpaceOnUse" x1="14.373" x2="113.891" y1="348.55" y2="348.55"><stop offset="0" stop-color="#23286b"/><stop offset="1" stop-color="#151a4f"/></linearGradient><linearGradient id="G"><stop offset="0" stop-color="#428dfc"/><stop offset="1" stop-color="#1d72d8"/></linearGradient><linearGradient xmlns:xlink="http://www.w3.org/1999/xlink" id="K" gradientUnits="userSpaceOnUse" x1="70.295" x2="173.132" xlink:href="#G" y1="184.467" y2="238.217"/><linearGradient xmlns:xlink="http://www.w3.org/1999/xlink" id="L" gradientUnits="userSpaceOnUse" x1="76.441" x2="-11.462" xlink:href="#G" y1="74.49" y2="169.129"/><path d="M138.48 475.039c.52 7.745 1.733 13.668 1.939 21.854-11.668 4.38-23.439 1.82-35.954 3.172-10.462 1.131-27.016 1.917-37.364-1.057-10.751-6.168 25.206-17.442 41.417-25.027.85.65 29.716-2.594 29.962 1.058z" fill="url(#H)"/><path d="M115.465 247.666c1.127 8.052 3.057 16.441 1.981 24.784-1.124 8.72-6.342 14.802-9.676 22.855-7.359 17.777-3.149 39.611-5.957 58.556-1.388 9.367-4.963 21.548-4.265 30.767.65 8.583 6.466 15.683 10.942 22.776 12.87 20.394 25.49 47.258 29.46 67.107-15.012 3.679-25.641 5.324-33.31 1.234-8.425-35.639-29-72.328-35.55-109.206-2.631-14.812-7.916-29.378-9.995-44.184-1.838-13.087 2.174-26.711 5.506-39.228 5.176-19.441 16.214-27.708 27.985-42.085 6.989 5.08 16.094 10.094 22.879 6.624z" fill="#151a4f"/><path d="M144.644 133.312c9.068 9.638 12.054 26.61 16.278 38.852 4.535 13.143 9.529 27.166 12.852 40.381 3.459 13.758-.211 28.51-17.171 26.909-11.786-1.112-39.309.966-47.106-9.157-3.721-4.831 1.188-13.633 2.817-19.416 3.364-11.945 4.972-24.499 7.826-36.491 2.3-9.665 10.537-38.794 23.064-39.748.804.537 1.782-2.398 1.44-1.33z" fill="#1d72d8"/><path d="m192.54 227.245-.259 46.213-61.741-.346.259-46.213z" fill="#a1c3fc"/><path d="M113.101 477.507c.52 7.745 3.349 24.322 1.762 24.498-12.161 1.41-23.088.705-35.777.529-10.522-.146-27.016 1.917-37.364-1.057-10.751-6.168 25.206-17.442 41.417-25.027.85.648 29.716-2.595 29.962 1.057z" fill="url(#I)"/><path d="M142.154 103.175c-4.584 6.781-8.092 23.659-8.638 23.255-3.786-2.804-11.341-4.104-16.254-5.071-9.096-1.79-13.201 1.678-12.672-2.692.606-5.008 2.464-14.62 5.976-23.739 9.045 7.18 19.946 9.973 31.588 8.247z" fill="#f2a19c"/><path d="M18.864 219.281c-4.602 5.544-4.227 17.688-4.427 25.035-1.144 42.057 13.322 83.059 25.065 122.85 9.226 31.263 20.735 62.013 29.145 93.452 1.944 7.268 2.311 13.525 7.74 18.994 13.823-.168 20.173.671 37.503-1.155-1.973-10.36-7.845-45.551-12.463-59.303-6.89-20.519-18.983-35.147-18.616-57.123.493-29.6-4.73-39.949-2.65-59.917 1.494-14.339 19.898-24.637 22.365-40.917 1.487-9.817 4.178-34.823-4.933-39.466-5.34-2.722-46.484-2.725-52.655-2.475-9.708.393-16.991.624-26.418-1.759.839-.492-.495 2.276.344 1.784z" fill="url(#J)"/><path d="M23.173 37.588c.123-3.979 1.802-7.581 1.925-11.282.17-5.121-4.055-5.302-6.461-9.511C17.296 14.45 8.79-7.561 7.208 2.72c-.511 3.319 3.499 7.366 3.273 10.881-.227 3.524-3.549 6.905-5.065 10.043-2.291 4.742-3.774 5.718-.713 10.919 2.22 3.774 5.853 6.973 8.289 10.743 1.045 1.616 2.099 3.006 2.499 4.902 7.424 1.397 7.282-7.708 6.861-11.95.406 1.474.005-1.987.821-.67z" fill="#ffbeb6"/><path d="M119.55 78.265c-1.091 0-1.813-.485-2.264-.974-1.644-1.783-1.519-5.654-.71-7.537a.5.5 0 1 1 .918.395c-.694 1.619-.779 5.047.527 6.464.639.692 1.528.834 2.726.432a.5.5 0 1 1 .319.948 4.75 4.75 0 0 1-1.516.272z" fill="#23286b"/><path d="M140.094 129.303c8.788 5.865 12.322 11.267 15.307 24.697 2.897 13.038-1.97 26.767-11.589 44.183-4.529 8.2 1.352 61.755 0 70.982-1.504 10.259-24.554 8.917-34.767 1.449C52.552 229.303 3.497 250.896.399 238.744c-3.693-14.483 19.318-59.739 26.075-72.431 9.251-17.376 24.429-28.977 40.707-40.86 17.383-12.689 33.06-15.171 53.468-6.928.935.246 15.135 7.901 19.445 10.778z" fill="url(#K)"/><path d="M121.64 74.937c-22.42 11.314-24.039 38.907 10.048 35.324 27.783-2.92 30.013-40.428-2.053-38.329-4.006.654-6.349 2.174-7.995 3.005z" fill="#ffbeb6"/><path d="M135.642 70.951c36.84 1.802 16.968 50.52-11.205 39.751-1.211-8.934 1.328-37.337 11.205-39.751z" fill="#e94a47"/><path d="M8.509 49.874c-.211-8.241 6.847-15.227 15.24-14.903 3.989 17.103 9.905 30.532 22.335 42.269 7.372 6.961 33.728 16.827 42.885 21.145 9.054 4.269 24.965 16.265 28.768 21.573 10.222 14.266-15.493 27.65-31.869 29.697-23.178 2.897-33.459 1.182-42.734-5.07-16.115-10.863-21.696-19.601-30.421-45.631-3.634-10.84-8.682-32.97-4.204-49.08z" fill="url(#L)"/><circle cx="155.746" cy="93.831" fill="#23286b" r="7.603"/><path d="M116.469 94.629c2.523-1.238 10.527-5.696 11.654-.841.814 3.505-7.377 10.617-10.138 11.273-1.695-3.573-.137-7.285-1.516-10.432z" fill="#ffbeb6"/><path d="M156.999 90.82c1.616-.107 3.816-.445 5.555-.116 2.598.491 5.384 1.732 7.35 3.53 5.127 4.69 8.043 12.326 9.482 18.995.689 3.191 4.249 17.851.77 20.077-1.648 1.054-26.333.63-26.333.63s-.105-30.514.192-33.781c.152-1.659-.623-9.096 2.984-9.335z" fill="#e94a47"/><path d="M186.063 132.496c-.016 0-.031 0-.048-.002a.5.5 0 0 1-.451-.544c.901-9.646-1.032-22.869-7.382-30.666-2.346-2.88-6.419-6.509-10.817-8.059-1.892-.667-3.803-.971-5.834-.963-.738.007-1.615.155-2.463.299-1.167.197-2.267.384-3.099.237a.5.5 0 1 1 .174-.984c.66.117 1.727-.064 2.758-.238.886-.15 1.803-.306 2.62-.313 2.171-.012 4.172.314 6.176 1.02 4.595 1.619 8.829 5.385 11.261 8.37 6.528 8.016 8.522 21.542 7.603 31.39a.501.501 0 0 1-.498.453z" fill="#e94a47"/><path d="M156.942 274.385c0-2.543-2.166-12.514 2.297-12.491 1.556.008 2.308 1.034 2.871 2.3.389.875.232.867.861 1.332.384.284 1.348.489 1.866.853 1.266.891 1.953 2.326 3.445 2.418 1.221.075 2.619-.888 3.552.131.771.842 1.032 2.95 1.44 4.029.424 1.122.968 2.2 1.292 3.326 1.381 4.795-4.664 3.312-7.432 2.376-2.151-.727-4.231-1.429-6.499-1.837-.853-.154-3.371-.068-3.693-2.437z" fill="#f8afa9"/><path d="M84.882 100.815a.246.246 0 0 0 .338.086.246.246 0 0 0 .086-.338.247.247 0 0 0-.424.252zm20.479 14.871a.252.252 0 0 0 .182.308.231.231 0 0 0 .293-.188.244.244 0 0 0-.166-.301.256.256 0 0 0-.309.181zm-9.887-8.198a.276.276 0 0 0 .057.359.257.257 0 0 0 .302-.416.274.274 0 0 0-.359.057zm-27.221 18.576a.48.48 0 0 0 .063.67c.187.17.475.155.645-.029l.017-.019a.48.48 0 0 0-.063-.67.47.47 0 0 0-.662.048zm7.379-8.751a.473.473 0 0 0 .073.668.473.473 0 0 0 .66-.063.467.467 0 0 0-.048-.66.507.507 0 0 0-.685.055zm7.399-8.759a.464.464 0 0 0 .051.657c.004.004.009.006.012.01.187.17.475.155.645-.029l.017-.019a.508.508 0 0 0-.055-.685.484.484 0 0 0-.67.066zm-25.755-4.376a.468.468 0 0 0 .639.181.468.468 0 0 0 .181-.639.472.472 0 0 0-.629-.187.483.483 0 0 0-.191.645zm10.177-5.264a.47.47 0 1 0 .191-.645.485.485 0 0 0-.191.645zm23.057 33.455a.477.477 0 0 0 .317.593.46.46 0 0 0 .583-.296s.002-.003.001-.005a.455.455 0 0 0-.259-.588l-.035-.013a.504.504 0 0 0-.607.309zm3.483-10.922a.503.503 0 0 0 .308.608.478.478 0 0 0 .593-.316.47.47 0 0 0-.307-.59l-.006-.002a.464.464 0 0 0-.585.294l-.003.006zm3.475-10.905a.45.45 0 0 0 .279.576l.021.006a.472.472 0 0 0 .601-.285l.008-.023a.475.475 0 1 0-.909-.274zM52.38 94.064c.086.215.331.32.547.236a.42.42 0 1 0-.311-.783.43.43 0 0 0-.236.547zm30.105 30.434a.447.447 0 0 0 .234.568.407.407 0 0 0 .537-.211l.007-.017a.417.417 0 0 0-.211-.555l-.008-.003a.442.442 0 0 0-.559.218zm4.022-9.382a.42.42 0 0 0 .225.545.407.407 0 0 0 .537-.211l.007-.017a.42.42 0 0 0-.21-.557l-.008-.003a.435.435 0 0 0-.551.243zm4.023-9.419a.422.422 0 0 0 .21.558l.008.003a.398.398 0 0 0 .545-.228.422.422 0 0 0-.21-.558l-.008-.003a.431.431 0 0 0-.545.228zM67.525 107.8a.426.426 0 0 0 .007.599c.161.166.425.17.59.01a.444.444 0 0 0 .018-.605.441.441 0 0 0-.615-.004zm7.324-7.145a.407.407 0 0 0-.028.573c.006.006.012.011.017.018.161.166.425.17.59.01a.444.444 0 0 0 .018-.605.427.427 0 0 0-.597.004zm28.416 23.122a.401.401 0 0 0 .386.414l.025.001a.422.422 0 0 0 .437-.404l.001-.015a.437.437 0 0 0-.428-.422.415.415 0 0 0-.422.408c-.001.005.002.011.001.018zm.113-10.233a.435.435 0 0 0 .419.437.428.428 0 0 0 .017-.854.416.416 0 0 0-.436.417zm-57.567-10.835a.508.508 0 0 0 .01.699.49.49 0 0 0 .689.006.502.502 0 0 0-.01-.699.489.489 0 0 0-.689-.006zm8.366-8.335a.489.489 0 0 0-.006.689.49.49 0 0 0 .689.006.488.488 0 0 0-.683-.695zm37.392 27.753a.514.514 0 0 0 .501.5.493.493 0 0 0-.009-.986.501.501 0 0 0-.492.486zm.014-11.805a.501.501 0 0 0 .486.492.488.488 0 1 0 .006-.978.5.5 0 0 0-.492.486zm-23.462 1.204a.523.523 0 0 0 .269.646.494.494 0 0 0 .631-.277.48.48 0 0 0-.246-.633l-.01-.004a.492.492 0 0 0-.644.268c0-.002 0 0 0 0zm4.537-10.912a.495.495 0 0 0 .268.645l.001.001c.243.1.523-.017.621-.262a.483.483 0 0 0-.259-.634.482.482 0 0 0-.631.25zm-12.554 9.759a.485.485 0 1 0 .653-.247.495.495 0 0 0-.653.247zm4.961-10.666a.494.494 0 0 0 .246.651.5.5 0 0 0 .644-.231.519.519 0 0 0-.238-.666.505.505 0 0 0-.652.246zM84.7 110.316a.499.499 0 0 0 .478.507.483.483 0 0 0 .499-.463.474.474 0 0 0-.432-.513c-.007-.001-.014-.002-.021 0a.485.485 0 0 0-.52.454c-.004.004-.004.01-.004.015z" fill="#fff"/></svg></g><g transform="translate(200.0 462.0) rotate(0.0 156.5 137.5) scale(0.7825 0.7834757834757835)"><svg width="400" height="351" viewBox="0 0 400 351"><linearGradient id="M"><stop offset="0" stop-color="#ffbeb6"/><stop offset="1" stop-color="#f2a19c"/></linearGradient><linearGradient xmlns:xlink="http://www.w3.org/1999/xlink" id="N" gradientUnits="userSpaceOnUse" x1="312.56" x2="271.389" xlink:href="#M" y1="81.219" y2="84.153"/><linearGradient xmlns:xlink="http://www.w3.org/1999/xlink" id="O" gradientUnits="userSpaceOnUse" x1="272.348" x2="221.254" xlink:href="#M" y1="82.951" y2="83.295"/><linearGradient xmlns:xlink="http://www.w3.org/1999/xlink" id="P" gradientUnits="userSpaceOnUse" x1="271.989" x2="223.949" xlink:href="#M" y1="175.607" y2="175.073"/><linearGradient id="Q" gradientUnits="userSpaceOnUse" x1="362.829" x2="377.653" y1="208.034" y2="149.368"><stop offset="0" stop-color="#428dfc"/><stop offset="1" stop-color="#1d72d8"/></linearGradient><linearGradient id="R" gradientUnits="userSpaceOnUse" x1="231.606" x2="217.577" y1="211.428" y2="328.966"><stop offset="0" stop-color="#23286b"/><stop offset="1" stop-color="#151a4f"/></linearGradient><linearGradient id="S" gradientUnits="userSpaceOnUse" x1="308.223" x2="393.817" y1="133.491" y2="176.156"><stop offset="0" stop-color="#a1c3fc"/><stop offset="1" stop-color="#78a9ef"/></linearGradient><linearGradient id="T" gradientUnits="userSpaceOnUse" x1="173.906" x2="294.66" y1="175.354" y2="175.354"><stop offset="0" stop-color="#eee"/><stop offset="1" stop-color="#d6d7d8"/></linearGradient><linearGradient xmlns:xlink="http://www.w3.org/1999/xlink" id="U" gradientUnits="userSpaceOnUse" x1="237.737" x2="238.984" xlink:href="#M" y1="184.977" y2="214.795"/><path d="M291.478 83.353c-1.006-.575-1.181 1.655-1.353 2.678-1.151 6.823-2.099 13.783-4.892 20.114-.555 1.257-1.184 2.702-.593 3.942.225.47.602.844.966 1.216 3.605 3.694 7.492 6.349 9.406 11.143 1.506-4.781 2.846-8.573 3.608-13.528.902-5.865 1.271-7.596 1.443-13.528.033-1.137-.861-5.518-1.29-6.571-.432-1.052-5.433-4.21-7.295-5.466z" fill="#1d72d8"/><path d="M292.04 103.153c4.771-2.006 8.922-6.811 8.053-11.914-.123-.722-.358-1.457-.869-1.981-.581-.596-1.426-.835-2.226-1.069-13.353-3.893-25.23-12.649-32.896-24.254a144.542 144.542 0 0 0-5.167 24.7c1.877 2.372 5.187 2.879 8.116 3.639 7.923 2.056 14.717 7.016 22.01 10.733.471.24.963.48 1.491.505.512.025 1.013-.16 1.488-.359z" fill="url(#N)"/><path d="M279.614 78.351c-.295-7.497-2.253-15.668-8.33-20.069-3.857-2.793-8.873-3.619-13.614-3.169-4.742.451-9.286 2.074-13.722 3.806-5.914 2.31-12.316 5.414-14.569 11.35-1.514 3.991-.786 8.487.55 12.541 2.454 7.447 6.98 14.284 13.234 19.014a33.088 33.088 0 0 0 5.251 3.241c2.024 2.24 2.837 2.867 4.986 5.255 1.965 2.183 2.555-.69 3.321-2.456 2.799.527 5.664.669 8.502.36 2.818-.307 5.68-1.086 7.88-2.874 3.14-2.552 4.438-6.708 5.228-10.675a69.905 69.905 0 0 0 1.283-16.324z" fill="url(#O)"/><path d="M298.586 151.546c-1.393-8.847-4.061-25.438-3.099-34.342s4.083-10.404 11.094-15.978c3.944-3.136 10.051-4.885 13.798-1.517 2.623 2.358 5.646 8.035 5.84 11.557 1.946 35.197 8.598 65.955-5.227 103.83a23.59 23.59 0 0 1-12.571-2.773c-.647-.35-1.294-.744-1.742-1.328-.593-.774-.762-1.782-.914-2.745-2.001-12.713-2.724-22.168-4.725-34.881-.981-6.237-1.472-15.59-2.454-21.823z" fill="#89b3f4"/><path d="M212.631 157.499c3.028-3.158 24.019-4.613 34.799-3.551 4.719.465 9.542-.399 14.194.524 4.719.935 8.875 3.628 12.9 6.265 7.874 5.16 12.012 16.134 19.886 21.293 2.93 1.92 9.561 12.264 12.989 12.987-1.841 5.467-18.363-3.062-20.204 2.406-8.992-11.491-11.753-13.207-21.361-24.191-3.017-3.45-5.242-7.821-9.26-10.026-2.719-1.492-5.905-1.781-8.967-2.271-11.605-1.857-39.955 1.756-34.976-3.436z" fill="url(#P)"/><path d="M298.912 207.765c3.163 3.528 6.372 7.096 10.325 9.708s7.944.562 11.818-2.665c2.97-10.974-5.66-18.63-15.157-27.317s-22.032-18.199-29.221-25.171c-.72 4.825-5.449 10.232-9.995 12.001 10.896 13.691 21.911 21.935 32.23 33.444z" fill="#89b3f4"/><path d="M79.98 318.151c10.186-1.949 46.18-.006 46.18-.006s4.044 19.725 3.942 32.712l-45.576.061c-25.533.034-31.572.275-58.531-.275-.574-6.059 11.515-17.188 33.553-22.386 4.87-1.147 15.517-9.165 20.432-10.106z" fill="#f7931e"/><path d="M54.004 318.151c10.186-1.949 46.18-.006 46.18-.006s4.044 19.725 3.942 32.712l-45.576.061c-25.533.034-31.572.275-58.531-.275-.574-6.059 11.515-17.188 33.553-22.386 4.87-1.147 15.516-9.165 20.432-10.106z" fill="#fbb03b"/><path d="M202.759 232.999c30.418 16.67 54.742 44.718 87.929 54.806 24.9 7.568 52.951 3.639 75.078-10.059 11.391-7.051 21.7-17.346 24.556-30.433.284-1.3.485-2.69.01-3.932-.581-1.521-2.041-2.497-3.424-3.36a278.45 278.45 0 0 0-34.899-18.475c-6.024 2.027-7.589 10.989-13.712 12.689-3.569.991-7.215-.94-10.503-2.645-21.092-10.94-104.983-85.804-127.669-69.281-58.448 42.566-89.836 88.381-136.017 156.202 18.401 1.082 62.416.36 62.416.36s9.882-8.202 21.647-21.645c10.102-11.543 8.067-25.408 15.875-28.86s21.4-16.164 23.838-24.344c1.472-4.939 2.042-11.534 7.01-12.912 2.665-.737 5.437.558 7.865 1.889z" fill="#151a4f"/><path d="M365.066 143.602c2.851-.12 5.868.159 8.221 1.774 1.941 1.333 3.211 3.42 4.365 5.472 15.873 28.179 21.345 62.064 15.152 93.806-.48 2.46-1.077 5.011-2.687 6.933-1.736 2.071-4.393 3.105-6.978 3.895a65.239 65.239 0 0 1-24.452 2.608c-4.895-.412-10.32-1.759-12.869-5.959-2.597-4.281-1.195-9.762.295-14.542 4.064-13.036 8.295-26.361 7.749-40.005-.547-13.643-6.892-27.916-19.085-34.063 5.514-11.432 17.61-19.386 30.289-19.919z" fill="url(#Q)"/><path d="M356.306 301.582c-6.587 2.67-13.855 3.178-20.957 2.936-24.242-.83-48.096-10.335-66.266-26.402-22.977-20.318-43.387-51.578-72.361-61.641-19.534-5.978-12.905 19.467-33.087 40.657-7.972 8.37-19.708 9.148-26.31 17.139-7.574 9.168-2.472 4.911-8.77 20.328-1.838 4.499-25.453 23.838-28.369 23.912-20.467.522-26.079.8-47.985.263 20.925-49.324 69.178-98.712 105.172-150.548 1.999-2.879 5.123-5.036 8.5-5.979 2.279-.636 4.693-.481 7.05-.289 56.463 4.57 111.381 26.687 155.25 62.522 3.687 3.011 7.367 4.449 10.012 9.258 1.942 3.533.427 10.206-.481 16.114-.908 5.907-1.625 9.07 4.089 10.822-2.256-10.424-1.202-27.657-1.202-27.657s7.273-8.433 10.866-13.728c14.142 7.502 29.918 8.1 44.695 1.943 0 22.847-5.399 34.746-12.989 50.596-5.906 12.336-14.179 24.614-26.857 29.754z" fill="url(#R)"/><path d="M294.01 90.762c3.119-4.203 18.367-1.457 24.545 2.034 23.033 13.015 39.903 27.451 54.82 49.301 5.044 7.387 8.707 13.665 14.14 27.036-12.155.792-15.656 17.227-48.849 25.403-6.254-21.164-12.286-32.901-26.458-45.214-10.647-9.249-11.812-11.343-16.356-28.379-2.885-10.823-6.272-18.451-1.842-30.181z" fill="url(#S)"/><path d="M312.185 140.427a361.832 361.832 0 0 0-7.22 76.742 30.421 30.421 0 0 1-17.214-7.609l-2.161 4.33" fill="none" stroke="#000" stroke-miterlimit="10"/><path d="M274.346 82.231c4.952-1.729 10.166-5.129 10.693-10.347.467-4.622-2.926-8.643-6.097-12.04l-10.097-10.826c-.715-.768-1.463-1.556-2.436-1.952-1.383-.562-2.951-.224-4.388.18-7.222 2.031-13.922 5.551-20.56 9.044-2.425 1.276-4.875 2.57-6.942 4.369-5.785 5.034-8.21 14.381-4.93 21.313 6.122-2.306 13.353.188 19.731 1.648a45.566 45.566 0 0 0 25.026-1.389z" fill="#428dfc"/><path d="M263.224 76.507c-12.082 0-23.963-2.11-34.745-6.268a.872.872 0 1 1 .628-1.629c16.937 6.532 36.652 7.915 55.514 3.897a.873.873 0 1 1 .364 1.708 104.597 104.597 0 0 1-21.761 2.292z" fill="#e94a47"/><path d="M245.744 77.084c-6.635 0-12.803-.977-18.485-2.935a.874.874 0 0 1 .569-1.652c15.331 5.283 34.423 3.19 56.738-6.22a.874.874 0 0 1 .68 1.609c-14.529 6.128-27.744 9.198-39.502 9.198z" fill="#e94a47"/><path d="M265.117 45.506c-3.648-8.878.117-21.758 6.784-28.663 6.667-6.906 16.387-10.28 25.973-10.788 3.017-.16 6.164-.032 8.858 1.334 2.694 1.367 4.812 4.255 4.443 7.254-3.649-1.864-8.289-.754-11.473 1.827-3.183 2.579-5.139 6.369-6.597 10.197-1.165 3.06-2.112 6.294-4.171 8.842-2.302 2.846-5.728 4.505-9.071 5.994-4.32 1.925-8.971 6.046-13.142 3.817-.446 7.381-1.134 1.6-1.604.186z" fill="#428dfc"/><path d="M264.961 44.458a.437.437 0 0 1-.429-.364 71.786 71.786 0 0 1-.28-22.526c1.041-7.142 3.037-12.211 6.28-15.953C274.741.76 281.26-1.233 286.385.771a.437.437 0 0 1-.317.814c-4.788-1.872-10.903.021-14.875 4.603-3.129 3.609-5.06 8.536-6.076 15.506a70.917 70.917 0 0 0 .277 22.252.438.438 0 0 1-.433.512z" fill="#428dfc"/><path d="M247.151 108.283c-1.924 0-4.034-.631-5.943-1.775-4.351-2.611-6.367-6.978-4.589-9.942.917-1.528 2.737-2.403 4.992-2.403 1.923 0 4.034.631 5.942 1.775 4.352 2.611 6.367 6.978 4.589 9.942-.917 1.527-2.737 2.403-4.991 2.403zm-5.541-12.375c-1.627 0-2.901.567-3.495 1.556-1.232 2.054.596 5.51 3.99 7.546 1.64.984 3.431 1.526 5.044 1.526 1.627 0 2.9-.567 3.494-1.556 1.232-2.054-.596-5.51-3.99-7.546-1.64-.983-3.431-1.526-5.043-1.526z" fill="#23286b"/><path d="M260.255 41.579h10.102v10.1h-10.102z" fill="#e94a47"/><path d="M304.751 302.098h94.526v22.367h-94.526z" fill="#d62929"/><path d="M285.991 324.465h94.526v22.367h-94.526z" fill="#428dfc"/><path d="M311.246 306.787H400v12.987h-88.754z" fill="#d6d7d8"/><path d="M313.41 329.846h33.193v10.822H313.41z" fill="#eee"/><path d="m173.906 164.321 37.416-16.202s83.902 28.515 83.335 30.459c-.566 1.944-22.109 22.683-24.377 23.978s-96.374-38.235-96.374-38.235z" fill="url(#T)"/><g fill="#23286b"><path d="M195.236 167.924a.437.437 0 0 1-.198-.824l21.897-11.18a.436.436 0 1 1 .396.778l-21.897 11.18a.449.449 0 0 1-.198.046zm9.354 5.103a.438.438 0 0 1-.214-.818l21.684-12.152a.44.44 0 0 1 .595.166.438.438 0 0 1-.168.595l-21.684 12.152a.423.423 0 0 1-.213.057zm16.369 8.262a.436.436 0 0 1-.235-.803l24.447-15.553a.436.436 0 0 1 .468.736l-24.447 15.553a.43.43 0 0 1-.233.067zm40.391 10.452a.438.438 0 0 1-.259-.789l19.557-14.338a.437.437 0 1 1 .518.704l-19.557 14.338a.434.434 0 0 1-.259.085zm-15.094-7.048a.436.436 0 0 1-.235-.803l20.197-12.879a.436.436 0 1 1 .468.735l-20.197 12.88a.44.44 0 0 1-.233.067z"/></g><path d="M255.324 159.062c-2.522.549-9.199 2.525-11.802 3.897-2.387 1.258-5.883 3.512-6.056 6.204-.231 3.582 5.827.191 9.102-1.027 6.32-2.349 13.677-3.227 23.503-1.585 2.221.371 5.21-1.015 3.895-1.795-1.316-.78-2.225-1.905-4.75-3.168-2.978-1.488-10.539-3.256-13.892-2.526z" fill="#ffbeb6"/><path d="M285.588 201.882c-7.905 0-34.373-5.415-48.51-11.856-3.849-1.754-13.049-12.791-14.993-13.836-6.254-3.361-17.617-7.597-18.065-6.643-4.311 7.185 7.715 5.129 12.936 11.856-9.657-3.43-17.287-6.893-26.944-10.323 1.143 9.211 7.867 6.656 11.133 11.4.643.933 5.553 16.394 6.549 16.933 1.244.672 2.75.525 4.157.385 7.66-.76 15.398-.716 23.049.12 4.929.539 35.093 16.58 39.907 17.773.211-3.026 9.721-12.965 10.781-15.809z" fill="url(#U)"/><path d="M320.144 110.578c-2.459-6.117-11.089-11.884-17.5-10.349-6.969 1.668-7.708 10.337-7.637 17.503.121 12.226 1.141 28.265 1.774 37.185.934 13.185-1.843 26.189-4.32 39.173-.443 2.394-1.287 4.407-2.379 6.121-18.018.991-36.293-2.718-52.445-10.776a40.796 40.796 0 0 0-6.063 19.251c-.074 1.373-.049 2.852.737 3.981.89 1.278 2.511 1.778 4.013 2.187 23.504 6.389 44.031 10.969 68.311 12.896.735.066 1.373-.301 1.927-.974a2.469 2.469 0 0 0 1.032-1.032c5.38-10.304 8.884-25.033 11.26-37.876 2.605-14.089 3.678-26.987 5.475-41.203 1.479-11.716.269-25.005-4.185-36.087z" fill="#a1c3fc"/><path d="M311.246 316.609H400v1.637h-88.754zm0-3.274H400v1.637h-88.754zm0-3.274H400v1.637h-88.754zm0-3.274H400v1.637h-88.754z" fill="#eee"/><circle cx="362.216" cy="335.679" fill="#23286b" r="6.22"/><path d="M300.169 122.209c.117-.108.121-.221.013-.338s-.221-.121-.338-.013-.121.221-.013.338c.108.117.225.008.338.013zm7.381-22.726c.112.004.23-.104.234-.216.004-.112-.104-.23-.216-.233-.112-.004-.23.104-.234.216-.121.22.099.341.216.233zm-4.474 11.221c.112.004.225.008.342-.101.004-.112.008-.225-.101-.342-.112-.004-.225-.008-.342.101-.12.221-.012.337.101.342zm24.555 18.948c.221.121.451.017.572-.205.121-.221.017-.451-.205-.571-.221-.121-.451-.017-.572.205-.233.217-.02.563.205.571zm-10.001-3.978c.221.121.451.017.572-.205.121-.221.017-.451-.205-.571-.221-.121-.451-.017-.572.205-.119.22-.015.449.205.571zm-9.995-4.091c.221.121.451.017.572-.205.121-.221.017-.451-.205-.571-.221-.121-.451-.017-.572.205-.122.221-.018.45.205.571zm3.611 24.261a.718.718 0 0 0 .025-.675.718.718 0 0 0-.675-.025c-.121.221-.129.446-.021.563.211.346.437.354.671.137zm-7.728-7.502a.718.718 0 0 0 .025-.675.718.718 0 0 0-.675-.025c-.121.221-.129.446-.021.563.217.233.554.246.671.137zm23.226-30.369c.225.008.458-.209.468-.434.008-.225-.209-.458-.434-.468-.225-.008-.458.209-.468.434-.01.226.208.459.434.468zm-10.828.049c.225.008.458-.209.468-.434.008-.225-.209-.458-.434-.468-.225-.008-.458.209-.468.434-.007.227.21.46.434.468zm-10.714.054c.225.008.458-.209.468-.434.008-.225-.209-.458-.434-.468-.225-.008-.458.209-.468.434-.012.339.21.46.434.468zm-1.555 45.041c.117-.108.242-.442.021-.563-.108-.117-.442-.242-.563-.021-.117.108-.242.442-.021.563.104.23.33.237.563.021zm18.35-35.737c.225.008.455-.096.462-.321.008-.225-.101-.342-.321-.462-.225-.008-.455.096-.462.321-.008.224.096.453.321.462zm-9.554-.805c.225.008.455-.096.462-.321.008-.225-.101-.342-.321-.462-.225-.008-.455.096-.462.321-.01.224.095.453.321.462zm-9.551-.917c.225.008.455-.096.462-.321.008-.225-.101-.342-.321-.462-.225-.008-.455.096-.462.321-.012.337.096.453.321.462zm8.621 19.937c.221.121.451.017.572-.205.121-.221.017-.451-.205-.571-.221-.121-.451-.017-.572.205-.121.221-.02.562.205.571zm-8.52-4.375c.221.121.451.017.567-.091.121-.221.017-.451-.205-.571-.221-.121-.451-.017-.572.205-.116.106-.012.336.21.457zm12.352-32.125c.23-.104.346-.213.242-.442-.104-.23-.326-.35-.442-.242-.23.104-.35.325-.246.554 0 0 .221.121.446.13zm-9.125 2.819c.23-.104.35-.325.246-.554-.104-.23-.326-.35-.555-.246-.23.104-.35.325-.242.442.101.341.322.462.551.358-.112-.005 0 0 0 0zm6.998 54.601c.221.121.451.017.572-.205.121-.221.017-.451-.205-.571-.221-.121-.451-.017-.572.205-.12.221-.015.45.205.571zm-9.851-4.987c.221.121.451.017.572-.205.121-.221.017-.451-.205-.571-.221-.121-.451-.017-.572.205-.115.109-.015.45.205.571zm13.943-41.538c.23-.104.35-.325.246-.554-.104-.23-.326-.35-.555-.246-.23.104-.35.325-.246.554-.008.226.325.351.555.246zm-10.615 3.441c.23-.104.35-.325.246-.554-.104-.23-.326-.35-.555-.246-.23.104-.35.325-.246.554.109.117.326.35.555.246zm7.92 20.587c.225.008.458-.209.468-.434.008-.225-.209-.458-.434-.468-.225-.008-.458.209-.468.434-.007.226.209.461.434.468zm-11.018-.859c.225.008.458-.209.468-.434.008-.225-.209-.458-.434-.468-.225-.008-.458.209-.468.434-.008.226.096.456.434.468zm12.319 8.349c.225.008.458-.209.468-.434.008-.225-.209-.458-.434-.468s-.455.096-.468.434c-.007.226.209.46.434.468zm-11.002-1.31c.225.008.458-.209.468-.434.008-.225-.096-.455-.434-.468-.225-.008-.458.209-.58.429.105.231.321.464.546.473zm3.809-20.604a.617.617 0 0 0 .358-.55.615.615 0 0 0-.55-.358.617.617 0 0 0-.358.55c-.009.225.324.35.55.358z" fill="#fff"/><path d="M291.525 83.386c1.67 5.281-4.048 21.986-4.171 22.585-.118.577 8.006 18.849 8.006 18.849s3.276-10.51 4.298-15.816c1.238-6.425 3.465-13.942.866-19.947-.169-.388-8.039-4.957-8.999-5.671z" fill="#428dfc"/></svg></g></svg>